<svg width="1220.3" height="91.7" viewBox="0 0 1220.3 91.7" xmlns="http://www.w3.org/2000/svg">
	<g id="svgGroup" stroke-linecap="round" fill-rule="evenodd" font-size="9pt" stroke="#000" stroke-width="0.25mm" fill="none" style="stroke:#000;stroke-width:0.25mm;fill:none">
		<path d="M 8.4 67.7 L 11.6 57.9 Q 14.3 59.7 17.25 61 A 44.269 44.269 0 0 0 20.286 62.212 A 33.768 33.768 0 0 0 22.8 63 Q 25.4 63.7 27 63.7 A 6.828 6.828 0 0 0 31.146 62.279 A 10.092 10.092 0 0 0 32.6 60.95 Q 35.1 58.2 36.55 53.3 A 34.3 34.3 0 0 0 37.702 47.552 A 46.045 46.045 0 0 0 38 42.2 Q 38 37.174 37.324 34.25 A 13.708 13.708 0 0 0 37.1 33.4 A 8.631 8.631 0 0 0 36.672 32.25 Q 35.813 30.4 34.4 30.4 A 1.966 1.966 0 0 0 33.733 30.546 Q 32.428 31.034 29.85 33.15 Q 26.5 35.9 21.85 42.75 Q 17.303 49.448 12.23 61.358 A 217.908 217.908 0 0 0 12 61.9 L 9.8 53 A 187.252 187.252 0 0 1 13.299 45.667 Q 17.078 38.197 20.55 33.35 A 60.04 60.04 0 0 1 23.657 29.354 Q 26.91 25.54 29.942 23.582 A 17.803 17.803 0 0 1 30.15 23.45 Q 34.18 20.926 37.936 20.637 A 12.589 12.589 0 0 1 38.9 20.6 A 12.576 12.576 0 0 1 41.984 20.952 A 7.416 7.416 0 0 1 47.2 25.3 A 20.828 20.828 0 0 1 48.48 29.275 Q 48.928 31.292 49.132 33.682 A 49.884 49.884 0 0 1 49.3 37.9 Q 49.3 47.6 45.7 55.1 A 32.48 32.48 0 0 1 40.898 62.481 A 27.672 27.672 0 0 1 36 66.9 Q 29.9 71.2 22.3 71.2 A 27.946 27.946 0 0 1 17.7 70.836 A 22.593 22.593 0 0 1 14.45 70.05 Q 10.9 68.9 8.4 67.7 Z M 11.2 91.5 L 4.2 91.5 Q 2.6 91.5 1.65 90.15 A 7.78 7.78 0 0 1 0.539 87.793 A 9.402 9.402 0 0 1 0.35 87 Q 0 85.2 0 83.7 Q 0 81.7 0.2 78.8 Q 0.4 75.9 0.8 71.9 L 6.6 20.5 L 13.6 20.5 A 2.576 2.576 0 0 1 15.593 21.378 A 3.448 3.448 0 0 1 15.85 21.7 Q 16.7 22.9 17.1 24.55 A 14.356 14.356 0 0 1 17.444 26.554 A 11.943 11.943 0 0 1 17.5 27.7 Q 17.5 29.267 16.752 32.057 A 47.721 47.721 0 0 1 16.4 33.3 A 838.929 838.929 0 0 1 15.806 35.288 Q 14.85 38.475 13.5 42.9 L 11.2 50.5 L 14.2 50.5 L 12.7 64 L 11.8 65.3 L 11.2 91.5 Z" id="0" vector-effect="non-scaling-stroke"/>
		<path d="M 85.4 65.1 L 91 42.3 L 91.6 42.2 A 80.53 80.53 0 0 1 88.273 49.855 Q 85.854 54.679 83.05 58.35 A 51.106 51.106 0 0 1 79.398 62.649 Q 77.394 64.745 75.372 66.287 A 25.957 25.957 0 0 1 73.25 67.75 A 26.245 26.245 0 0 1 70.104 69.423 Q 68.4 70.176 66.824 70.517 A 11.919 11.919 0 0 1 64.3 70.8 A 12.183 12.183 0 0 1 62 70.597 Q 59.506 70.117 58.1 68.5 A 7.645 7.645 0 0 1 56.547 65.574 Q 56.212 64.422 56.128 63.044 A 15.557 15.557 0 0 1 56.1 62.1 Q 56.1 60.1 56.35 57.7 Q 56.6 55.3 57.2 50.2 L 60.9 20.5 L 67.9 20.5 A 2.509 2.509 0 0 1 69.957 21.541 A 4.586 4.586 0 0 1 70.5 22.45 Q 71.309 24.204 71.391 26.645 A 16.642 16.642 0 0 1 71.4 27.2 A 34.389 34.389 0 0 1 71.362 28.864 Q 71.322 29.688 71.24 30.418 A 19.912 19.912 0 0 1 71.2 30.75 A 59.994 59.994 0 0 1 70.98 32.291 Q 70.854 33.099 70.696 33.993 A 99.807 99.807 0 0 1 70.65 34.25 Q 70.382 35.743 69.968 38.203 A 914.986 914.986 0 0 0 69.7 39.8 L 68.3 48.4 Q 67.9 51.2 67.65 53.35 Q 67.482 54.795 67.427 55.901 A 20.18 20.18 0 0 0 67.4 56.9 A 15.757 15.757 0 0 0 67.436 57.998 Q 67.527 59.295 67.85 60.05 A 1.596 1.596 0 0 0 68.871 60.956 Q 69.18 61.058 69.57 61.088 A 4.342 4.342 0 0 0 69.9 61.1 A 3.322 3.322 0 0 0 71.134 60.84 Q 72.152 60.432 73.331 59.385 A 14.942 14.942 0 0 0 73.85 58.9 A 29.476 29.476 0 0 0 75.811 56.769 Q 76.781 55.614 77.776 54.231 A 55.338 55.338 0 0 0 78.5 53.2 A 68.057 68.057 0 0 0 82.692 46.198 A 74.446 74.446 0 0 0 82.95 45.7 A 64.904 64.904 0 0 0 85.22 40.798 A 53.851 53.851 0 0 0 86.3 37.95 A 31.657 31.657 0 0 0 86.986 35.728 Q 87.283 34.61 87.437 33.63 A 12.533 12.533 0 0 0 87.6 31.7 A 21.987 21.987 0 0 0 87.494 29.593 A 27.505 27.505 0 0 0 87.3 28.05 A 28.886 28.886 0 0 1 87.095 26.433 Q 87.024 25.692 87.006 25.032 A 15.975 15.975 0 0 1 87 24.6 A 1.596 1.596 0 0 1 87.36 23.615 Q 87.762 23.091 88.614 22.624 A 7.864 7.864 0 0 1 88.95 22.45 A 17.01 17.01 0 0 1 91.583 21.438 A 21.162 21.162 0 0 1 93.35 21 Q 95.556 20.55 96.911 20.505 A 8.753 8.753 0 0 1 97.2 20.5 A 2.48 2.48 0 0 1 99.142 21.392 A 3.631 3.631 0 0 1 99.45 21.8 A 3.645 3.645 0 0 1 99.851 22.683 Q 100.153 23.625 100.252 25.114 A 24.044 24.044 0 0 1 100.3 26.7 A 15.411 15.411 0 0 1 100.256 27.787 Q 100.171 28.978 99.92 30.668 A 73.415 73.415 0 0 1 99.75 31.75 A 74.537 74.537 0 0 0 99.242 35.376 A 59.022 59.022 0 0 0 99 38 L 96.5 66.6 A 32.96 32.96 0 0 1 95.487 72.309 A 24.827 24.827 0 0 1 93.25 77.85 A 25.801 25.801 0 0 1 88.8 83.745 A 23.389 23.389 0 0 1 86.6 85.65 Q 82.6 88.7 77.9 90.2 Q 73.2 91.7 68.6 91.7 A 23.388 23.388 0 0 1 64.788 91.403 A 17.511 17.511 0 0 1 61 90.35 Q 57.7 89 55.8 86 Q 54.26 83.568 53.968 79.822 A 23.488 23.488 0 0 1 53.9 78 A 4.478 4.478 0 0 1 53.921 77.554 Q 53.966 77.104 54.111 76.84 A 0.829 0.829 0 0 1 54.25 76.65 A 1.397 1.397 0 0 1 54.502 76.447 A 0.934 0.934 0 0 1 55 76.3 A 1.593 1.593 0 0 1 55.394 76.354 Q 55.751 76.446 56.186 76.692 A 5.151 5.151 0 0 1 56.2 76.7 Q 56.9 77.1 58.2 77.9 A 61.921 61.921 0 0 0 60.073 79.098 Q 61.072 79.713 62.199 80.363 A 101.21 101.21 0 0 0 62.35 80.45 A 33.217 33.217 0 0 0 67.064 82.674 A 36.617 36.617 0 0 0 67.4 82.8 A 16.073 16.073 0 0 0 70.86 83.677 A 13.904 13.904 0 0 0 72.7 83.8 Q 75.3 83.8 77.5 82.15 Q 79.7 80.5 81.65 76.4 A 36.872 36.872 0 0 0 82.854 73.535 Q 84.076 70.282 85.235 65.751 A 119.415 119.415 0 0 0 85.4 65.1 Z" id="1" vector-effect="non-scaling-stroke"/>
		<path d="M 109.4 59.6 L 113.3 29.1 L 110.1 29.1 A 2.021 2.021 0 0 1 109.497 29.018 Q 108.838 28.812 108.663 28.09 A 2.511 2.511 0 0 1 108.6 27.5 Q 108.6 26.5 109.95 24.6 Q 111.3 22.7 113.4 20.4 Q 115.5 18.1 117.75 16 A 53.028 53.028 0 0 1 119.388 14.531 Q 120.713 13.394 121.9 12.55 Q 123.798 11.202 124.798 11.2 A 0.996 0.996 0 0 1 124.8 11.2 A 2.201 2.201 0 0 1 125.363 11.267 A 1.381 1.381 0 0 1 126.3 12.05 A 2.731 2.731 0 0 1 126.519 12.772 Q 126.623 13.401 126.5 14.2 L 125.6 22.1 L 136.8 22.1 A 7.053 7.053 0 0 1 137.319 22.118 Q 138.168 22.181 138.455 22.469 A 0.509 0.509 0 0 1 138.55 22.6 A 0.876 0.876 0 0 1 138.626 22.837 Q 138.716 23.331 138.4 24.2 Q 137.2 27.6 136.15 28.35 A 2.922 2.922 0 0 1 135.397 28.721 Q 134.598 28.995 133.337 29.071 A 17.28 17.28 0 0 1 132.3 29.1 L 124.3 29.1 L 121.8 50.5 Q 121.6 52.4 121.45 54.1 Q 121.3 55.8 121.3 57.2 A 7.592 7.592 0 0 0 121.378 58.327 Q 121.592 59.752 122.4 60.45 A 3.235 3.235 0 0 0 123.397 61.02 Q 124.418 61.4 126 61.4 A 9.692 9.692 0 0 0 128.042 61.195 A 7.327 7.327 0 0 0 130.15 60.4 A 18.415 18.415 0 0 1 130.865 60.01 Q 131.909 59.474 132.457 59.409 A 1.212 1.212 0 0 1 132.6 59.4 Q 133.322 59.4 133.392 60.214 A 2.155 2.155 0 0 1 133.4 60.4 A 2.732 2.732 0 0 1 133.31 61.055 Q 133.092 61.927 132.35 63.2 Q 131.444 64.754 129.792 66.345 A 22.743 22.743 0 0 1 129.25 66.85 A 15.911 15.911 0 0 1 126.399 68.882 A 20.519 20.519 0 0 1 124.2 69.95 A 16.058 16.058 0 0 1 120.138 71.024 A 20.617 20.617 0 0 1 117.4 71.2 A 12.852 12.852 0 0 1 114.941 70.982 Q 112.055 70.418 110.65 68.4 A 7.085 7.085 0 0 1 109.695 66.353 Q 109.066 64.239 109.261 61.129 A 28.745 28.745 0 0 1 109.4 59.6 Z" id="2" vector-effect="non-scaling-stroke"/>
		<path d="M 152.7 67.1 A 59.004 59.004 0 0 1 153.672 60.645 A 46.084 46.084 0 0 1 156.25 52.25 A 76.359 76.359 0 0 1 156.422 51.843 Q 159.105 45.556 162.35 41.1 Q 165.7 36.5 168.65 34.05 A 32.179 32.179 0 0 1 169.138 33.652 Q 171.71 31.6 172.9 31.6 Q 173.439 31.6 173.862 31.833 A 2.009 2.009 0 0 1 174.5 32.4 A 2.553 2.553 0 0 1 174.842 33.033 Q 174.977 33.391 175.041 33.831 A 6.017 6.017 0 0 1 175.1 34.7 Q 175.1 36.7 174.8 38.45 Q 174.5 40.2 174.2 42.2 L 172.5 52.6 Q 172.2 54.4 171.9 56.85 Q 171.6 59.3 171.4 61.5 A 63.797 63.797 0 0 0 171.29 62.858 Q 171.2 64.16 171.2 65.1 A 6.679 6.679 0 0 0 171.2 65.174 Q 171.206 65.702 171.295 66.436 A 23.434 23.434 0 0 0 171.4 67.2 Q 171.6 68.5 172.15 69.55 A 3.323 3.323 0 0 0 172.345 69.878 Q 172.836 70.6 173.5 70.6 L 180.8 70.6 L 185.6 39.3 Q 186 36.7 186.35 34.3 Q 186.7 31.9 186.7 29.7 A 13.151 13.151 0 0 0 186.413 26.877 A 9.113 9.113 0 0 0 184.7 23.15 A 5.918 5.918 0 0 0 183.121 21.746 Q 182.078 21.108 180.701 20.825 A 11.954 11.954 0 0 0 178.3 20.6 A 11.43 11.43 0 0 0 175.523 20.966 Q 174.085 21.327 172.508 22.042 A 28.038 28.038 0 0 0 169.5 23.65 A 24.863 24.863 0 0 0 166.621 25.719 Q 163.036 28.681 159.4 33.6 Q 156.193 37.94 153.381 44.138 A 99.827 99.827 0 0 0 150.2 52.1 L 152.7 67.1 Q 152.925 64.475 153.206 60.613 A 1037.361 1037.361 0 0 0 153.4 57.9 A 279.835 279.835 0 0 1 153.742 53.527 A 334.988 334.988 0 0 1 154.5 45.8 L 151.2 49.9 L 157.6 20.6 Q 158.3 17.7 158.7 15.8 A 44.067 44.067 0 0 0 158.893 14.83 A 38.075 38.075 0 0 0 159.3 12.15 A 25.142 25.142 0 0 0 159.313 12.037 Q 159.5 10.329 159.5 8.2 Q 159.5 5.4 158.55 2.7 A 7.567 7.567 0 0 0 158.309 2.096 Q 157.362 0 155.6 0 L 148.6 0 Q 148.3 5.7 147.4 11.35 Q 146.5 17 145.9 22.7 L 141.6 62.1 A 168.061 168.061 0 0 0 141.586 62.244 Q 141.2 66.135 141.2 68 Q 141.2 69.9 141.85 70.45 A 1.995 1.995 0 0 0 142.426 70.784 Q 142.721 70.898 143.085 70.952 A 4.909 4.909 0 0 0 143.8 71 Q 145 71 147.1 70.45 Q 149.2 69.9 150.95 69 Q 152.7 68.1 152.7 67.1 Z" id="3" vector-effect="non-scaling-stroke"/>
		<path d="M 205.542 70.503 A 23.502 23.502 0 0 0 211 71.1 Q 216.5 71.1 221.3 68.75 Q 226.1 66.4 229.7 62.25 A 29.835 29.835 0 0 0 230.469 61.327 A 31.611 31.611 0 0 0 235.35 52.65 A 31.088 31.088 0 0 0 235.941 50.929 A 33.275 33.275 0 0 0 237.4 41 A 38.924 38.924 0 0 0 237.144 36.404 Q 236.32 29.49 232.85 25.6 Q 229.793 22.174 224.908 21.049 A 23.213 23.213 0 0 0 219.7 20.5 Q 214.3 20.5 209.45 22.85 Q 204.6 25.2 200.9 29.4 A 30.507 30.507 0 0 0 199.89 30.608 A 32.58 32.58 0 0 0 195.05 39.15 A 30.636 30.636 0 0 0 193.916 42.712 A 34.518 34.518 0 0 0 192.9 51.2 A 35.627 35.627 0 0 0 193.045 54.477 Q 193.729 61.882 197.65 66.05 A 15.49 15.49 0 0 0 205.542 70.503 Z M 213.4 63.6 A 8.843 8.843 0 0 0 219.842 60.908 A 11.256 11.256 0 0 0 219.95 60.8 Q 222.7 58 224.15 53.1 A 34.482 34.482 0 0 0 225.322 47.208 A 45.195 45.195 0 0 0 225.6 42.1 A 35.196 35.196 0 0 0 225.39 38.125 Q 225.168 36.18 224.713 34.559 A 14.815 14.815 0 0 0 223.65 31.8 A 7.104 7.104 0 0 0 221.737 29.411 Q 220.363 28.331 218.433 28.078 A 9.478 9.478 0 0 0 217.2 28 A 8.953 8.953 0 0 0 211.101 30.38 A 11.842 11.842 0 0 0 210.65 30.8 A 15.417 15.417 0 0 0 208.023 34.293 Q 207.118 35.908 206.439 37.88 A 27.092 27.092 0 0 0 206.25 38.45 A 31.724 31.724 0 0 0 205.018 44.159 A 42.86 42.86 0 0 0 204.7 49.5 A 34.817 34.817 0 0 0 204.894 53.306 Q 205.337 57.327 206.796 59.825 A 10.039 10.039 0 0 0 206.9 60 Q 208.898 63.269 212.628 63.57 A 9.621 9.621 0 0 0 213.4 63.6 Z" id="4" vector-effect="non-scaling-stroke"/>
		<path d="M 282.9 70.6 L 275.8 70.6 A 1.798 1.798 0 0 1 274.963 70.41 Q 274.466 70.153 274.15 69.55 A 6.441 6.441 0 0 1 273.535 67.757 A 7.655 7.655 0 0 1 273.45 67.2 A 30.863 30.863 0 0 1 273.371 66.436 Q 273.305 65.702 273.3 65.174 A 8.911 8.911 0 0 1 273.3 65.1 Q 273.3 64.16 273.39 62.858 A 63.797 63.797 0 0 1 273.5 61.5 Q 273.7 59.3 274 56.85 Q 274.3 54.4 274.6 52.6 L 276.3 42.2 Q 276.6 40.2 276.9 38.45 Q 277.2 36.7 277.2 34.7 A 6.017 6.017 0 0 0 277.141 33.831 Q 277.077 33.391 276.942 33.033 A 2.553 2.553 0 0 0 276.6 32.4 A 2.009 2.009 0 0 0 275.962 31.833 Q 275.539 31.6 275 31.6 A 2.257 2.257 0 0 0 274.25 31.754 Q 273.125 32.159 271.272 33.634 A 32.774 32.774 0 0 0 270.7 34.1 Q 268.52 35.917 266.129 38.868 A 60.775 60.775 0 0 0 264.3 41.25 Q 260.927 45.864 258.193 52.299 A 75.084 75.084 0 0 0 258.15 52.4 A 46.622 46.622 0 0 0 255.335 61.812 A 57.264 57.264 0 0 0 254.6 66.9 L 252 52.1 A 90.169 90.169 0 0 1 254.769 45.004 Q 256.641 40.775 258.75 37.4 A 62.762 62.762 0 0 1 261.941 32.747 Q 264.145 29.839 266.4 27.7 Q 270.3 24 273.95 22.3 A 22.619 22.619 0 0 1 276.359 21.332 Q 278.563 20.6 280.4 20.6 A 13.432 13.432 0 0 1 282.327 20.73 Q 284.036 20.978 285.25 21.7 Q 287.1 22.8 287.95 24.75 A 9.916 9.916 0 0 1 288.637 27.15 A 13.564 13.564 0 0 1 288.8 29.3 Q 288.8 31.8 288.45 34.25 A 469.761 469.761 0 0 1 287.799 38.652 A 514.379 514.379 0 0 1 287.7 39.3 L 282.9 70.6 Z M 243.7 62.1 L 248.4 20.5 L 255.4 20.5 Q 256.849 20.5 258.019 22.554 A 9.2 9.2 0 0 1 258.1 22.7 A 9.867 9.867 0 0 1 259.241 26.483 A 12.203 12.203 0 0 1 259.3 27.7 A 6.842 6.842 0 0 1 259.247 28.493 Q 259.101 29.731 258.55 31.75 A 112.329 112.329 0 0 1 257.515 35.305 A 134.096 134.096 0 0 1 256.8 37.55 A 401.13 401.13 0 0 1 255.963 40.075 Q 255.578 41.224 255.229 42.238 A 220.43 220.43 0 0 1 255 42.9 L 252.4 51.1 L 256.1 50.5 L 254.5 66.9 Q 254.4 67.9 253.3 68.7 Q 252.2 69.5 250.7 70 Q 249.781 70.306 248.919 70.519 A 18.728 18.728 0 0 1 247.85 70.75 Q 246.832 70.939 246.241 70.985 A 4.418 4.418 0 0 1 245.9 71 A 6.057 6.057 0 0 1 245.22 70.965 Q 244.417 70.874 243.95 70.55 A 1.108 1.108 0 0 1 243.611 70.143 Q 243.285 69.523 243.25 68.2 Q 243.211 66.71 243.51 63.805 A 108.294 108.294 0 0 1 243.7 62.1 Z" id="5" vector-effect="non-scaling-stroke"/>
		<path d="M 328 67.7 L 331.2 57.9 Q 333.9 59.7 336.85 61 A 44.269 44.269 0 0 0 339.886 62.212 A 33.768 33.768 0 0 0 342.4 63 Q 345 63.7 346.6 63.7 A 6.828 6.828 0 0 0 350.746 62.279 A 10.092 10.092 0 0 0 352.2 60.95 Q 354.7 58.2 356.15 53.3 A 34.3 34.3 0 0 0 357.302 47.552 A 46.045 46.045 0 0 0 357.6 42.2 Q 357.6 37.174 356.924 34.25 A 13.708 13.708 0 0 0 356.7 33.4 A 8.631 8.631 0 0 0 356.272 32.25 Q 355.413 30.4 354 30.4 A 1.966 1.966 0 0 0 353.333 30.546 Q 352.028 31.034 349.45 33.15 Q 346.1 35.9 341.45 42.75 Q 336.903 49.448 331.83 61.358 A 217.908 217.908 0 0 0 331.6 61.9 L 329.4 53 A 187.252 187.252 0 0 1 332.899 45.667 Q 336.678 38.197 340.15 33.35 A 60.04 60.04 0 0 1 343.257 29.354 Q 346.51 25.54 349.542 23.582 A 17.803 17.803 0 0 1 349.75 23.45 Q 353.78 20.926 357.536 20.637 A 12.589 12.589 0 0 1 358.5 20.6 A 12.576 12.576 0 0 1 361.584 20.952 A 7.416 7.416 0 0 1 366.8 25.3 A 20.828 20.828 0 0 1 368.08 29.275 Q 368.528 31.292 368.732 33.682 A 49.884 49.884 0 0 1 368.9 37.9 Q 368.9 47.6 365.3 55.1 A 32.48 32.48 0 0 1 360.498 62.481 A 27.672 27.672 0 0 1 355.6 66.9 Q 349.5 71.2 341.9 71.2 A 27.946 27.946 0 0 1 337.3 70.836 A 22.593 22.593 0 0 1 334.05 70.05 Q 330.5 68.9 328 67.7 Z M 330.8 91.5 L 323.8 91.5 Q 322.2 91.5 321.25 90.15 A 7.78 7.78 0 0 1 320.139 87.793 A 9.402 9.402 0 0 1 319.95 87 Q 319.6 85.2 319.6 83.7 Q 319.6 81.7 319.8 78.8 Q 320 75.9 320.4 71.9 L 326.2 20.5 L 333.2 20.5 A 2.576 2.576 0 0 1 335.193 21.378 A 3.448 3.448 0 0 1 335.45 21.7 Q 336.3 22.9 336.7 24.55 A 14.356 14.356 0 0 1 337.044 26.554 A 11.943 11.943 0 0 1 337.1 27.7 Q 337.1 29.267 336.352 32.057 A 47.721 47.721 0 0 1 336 33.3 A 838.929 838.929 0 0 1 335.406 35.288 Q 334.45 38.475 333.1 42.9 L 330.8 50.5 L 333.8 50.5 L 332.3 64 L 331.4 65.3 L 330.8 91.5 Z" id="7" vector-effect="non-scaling-stroke"/>
		<path d="M 386 67.2 L 383.6 52.1 Q 387.3 42.5 391.15 35.45 A 65.099 65.099 0 0 1 393.998 30.697 Q 396.469 26.968 399 24.5 Q 401.874 21.698 404.8 20.909 A 8.802 8.802 0 0 1 407.1 20.6 Q 408.703 20.6 409.675 21.305 A 3.055 3.055 0 0 1 410.4 22.05 Q 411.374 23.462 411.399 25.585 A 9.551 9.551 0 0 1 411.4 25.7 Q 411.4 27.7 410.95 29.55 A 11.266 11.266 0 0 1 410.518 30.946 Q 410.234 31.682 409.864 32.277 A 6.418 6.418 0 0 1 409.65 32.6 A 3.485 3.485 0 0 1 409.085 33.233 A 2.218 2.218 0 0 1 407.6 33.8 A 4.116 4.116 0 0 1 406.59 33.666 Q 406.127 33.549 405.628 33.33 A 8.291 8.291 0 0 1 405.15 33.1 A 5.446 5.446 0 0 0 403.95 32.66 Q 403.36 32.514 402.659 32.45 A 12.784 12.784 0 0 0 401.5 32.4 A 2.047 2.047 0 0 0 400.566 32.659 Q 399.335 33.296 397.7 35.5 Q 396.029 37.752 394.279 41.087 A 75.812 75.812 0 0 0 392.95 43.75 Q 390.5 48.9 388.6 55.05 A 68.513 68.513 0 0 0 386.194 65.698 A 62.709 62.709 0 0 0 386 67.2 A 2.038 2.038 0 0 1 385.529 68.299 Q 385.304 68.575 384.975 68.825 A 4.321 4.321 0 0 1 384.8 68.95 A 8.863 8.863 0 0 1 383.206 69.805 A 10.893 10.893 0 0 1 382.25 70.15 A 20.876 20.876 0 0 1 380.581 70.596 A 16.826 16.826 0 0 1 379.5 70.8 Q 378.52 70.951 377.938 70.988 A 5.374 5.374 0 0 1 377.6 71 A 6.057 6.057 0 0 1 376.92 70.965 Q 376.117 70.874 375.65 70.55 A 1.108 1.108 0 0 1 375.311 70.143 Q 374.985 69.523 374.95 68.2 Q 374.911 66.71 375.21 63.805 A 108.294 108.294 0 0 1 375.4 62.1 L 380.1 20.5 L 387.1 20.5 Q 388.549 20.5 389.719 22.554 A 9.2 9.2 0 0 1 389.8 22.7 A 9.867 9.867 0 0 1 390.941 26.483 A 12.203 12.203 0 0 1 391 27.7 A 6.842 6.842 0 0 1 390.947 28.493 Q 390.801 29.731 390.25 31.75 A 112.329 112.329 0 0 1 389.215 35.305 A 134.096 134.096 0 0 1 388.5 37.55 A 401.13 401.13 0 0 1 387.663 40.075 Q 387.278 41.224 386.929 42.238 A 220.43 220.43 0 0 1 386.7 42.9 L 384.1 51.1 L 387.8 50.5 L 386 67.2 Z" id="8" vector-effect="non-scaling-stroke"/>
		<path d="M 422.142 70.503 A 23.502 23.502 0 0 0 427.6 71.1 Q 433.1 71.1 437.9 68.75 Q 442.7 66.4 446.3 62.25 A 29.835 29.835 0 0 0 447.069 61.327 A 31.611 31.611 0 0 0 451.95 52.65 A 31.088 31.088 0 0 0 452.541 50.929 A 33.275 33.275 0 0 0 454 41 A 38.924 38.924 0 0 0 453.744 36.404 Q 452.92 29.49 449.45 25.6 Q 446.393 22.174 441.508 21.049 A 23.213 23.213 0 0 0 436.3 20.5 Q 430.9 20.5 426.05 22.85 Q 421.2 25.2 417.5 29.4 A 30.507 30.507 0 0 0 416.49 30.608 A 32.58 32.58 0 0 0 411.65 39.15 A 30.636 30.636 0 0 0 410.516 42.712 A 34.518 34.518 0 0 0 409.5 51.2 A 35.627 35.627 0 0 0 409.645 54.477 Q 410.329 61.882 414.25 66.05 A 15.49 15.49 0 0 0 422.142 70.503 Z M 430 63.6 A 8.843 8.843 0 0 0 436.442 60.908 A 11.256 11.256 0 0 0 436.55 60.8 Q 439.3 58 440.75 53.1 A 34.482 34.482 0 0 0 441.922 47.208 A 45.195 45.195 0 0 0 442.2 42.1 A 35.196 35.196 0 0 0 441.99 38.125 Q 441.768 36.18 441.313 34.559 A 14.815 14.815 0 0 0 440.25 31.8 A 7.104 7.104 0 0 0 438.337 29.411 Q 436.963 28.331 435.033 28.078 A 9.478 9.478 0 0 0 433.8 28 A 8.953 8.953 0 0 0 427.701 30.38 A 11.842 11.842 0 0 0 427.25 30.8 A 15.417 15.417 0 0 0 424.623 34.293 Q 423.718 35.908 423.039 37.88 A 27.092 27.092 0 0 0 422.85 38.45 A 31.724 31.724 0 0 0 421.618 44.159 A 42.86 42.86 0 0 0 421.3 49.5 A 34.817 34.817 0 0 0 421.494 53.306 Q 421.937 57.327 423.396 59.825 A 10.039 10.039 0 0 0 423.5 60 Q 425.498 63.269 429.228 63.57 A 9.621 9.621 0 0 0 430 63.6 Z" id="9" vector-effect="non-scaling-stroke"/>
		<path d="M 462.4 60.4 L 466.3 20.5 L 473.5 20.5 A 2.162 2.162 0 0 1 474.883 21.008 Q 475.263 21.313 475.6 21.8 A 9.382 9.382 0 0 1 476.815 24.293 A 10.828 10.828 0 0 1 476.95 24.75 Q 477.4 26.4 477.4 27.7 A 21.197 21.197 0 0 1 477.338 29.229 Q 477.226 30.763 476.912 32.833 A 82.419 82.419 0 0 1 476.7 34.15 Q 476 38.3 475.1 44.1 A 179.724 179.724 0 0 0 474.351 49.501 Q 474.008 52.261 473.701 55.324 A 303.085 303.085 0 0 0 473.5 57.4 L 472.4 69.7 A 40.511 40.511 0 0 1 471.566 75.081 Q 470.613 79.238 468.8 82.3 A 20.363 20.363 0 0 1 465.627 86.425 A 16.471 16.471 0 0 1 461.45 89.45 A 21.144 21.144 0 0 1 452.935 91.665 A 25.104 25.104 0 0 1 451.6 91.7 A 8.186 8.186 0 0 1 448.69 91.192 A 7.599 7.599 0 0 1 447.15 90.4 A 8.257 8.257 0 0 1 444.662 87.765 A 10.434 10.434 0 0 1 444.1 86.7 A 11.799 11.799 0 0 1 443.196 83.658 A 15.981 15.981 0 0 1 443 81.1 A 3.515 3.515 0 0 1 443.036 80.581 Q 443.127 79.974 443.45 79.65 Q 443.715 79.385 443.963 79.276 A 0.834 0.834 0 0 1 444.3 79.2 A 1.329 1.329 0 0 1 444.74 79.28 Q 444.921 79.344 445.113 79.457 A 3.158 3.158 0 0 1 445.4 79.65 Q 445.997 80.098 447.288 80.893 A 68.154 68.154 0 0 0 447.3 80.9 A 34.227 34.227 0 0 0 449.976 82.342 A 41.833 41.833 0 0 0 451.75 83.15 Q 454.2 84.2 455.9 84.2 A 2.3 2.3 0 0 0 457.258 83.748 Q 457.591 83.511 457.9 83.15 Q 458.652 82.273 459.299 80.315 A 22.299 22.299 0 0 0 459.55 79.5 A 32.732 32.732 0 0 0 460.014 77.675 Q 460.448 75.76 460.864 73.13 A 117.103 117.103 0 0 0 461 72.25 Q 461.665 67.832 462.33 61.111 A 413.127 413.127 0 0 0 462.4 60.4 Z M 472.9 14.8 Q 470.1 14.8 468.05 12.9 A 6.309 6.309 0 0 1 466.036 8.702 A 8.701 8.701 0 0 1 466 7.9 A 9.13 9.13 0 0 1 466.308 5.46 A 6.548 6.548 0 0 1 468.4 2.15 Q 470.8 0.1 473.9 0.1 A 8.157 8.157 0 0 1 476.294 0.437 A 6.657 6.657 0 0 1 478.75 1.8 Q 480.7 3.5 480.7 6.9 A 8.239 8.239 0 0 1 480.178 9.88 A 7.446 7.446 0 0 1 478.4 12.55 A 7.589 7.589 0 0 1 472.906 14.8 A 9.762 9.762 0 0 1 472.9 14.8 Z" id="10" vector-effect="non-scaling-stroke"/>
		<path d="M 491.7 53.2 L 490.4 47.2 A 49.052 49.052 0 0 0 496.923 45.935 A 40.87 40.87 0 0 0 500.5 44.8 A 23.906 23.906 0 0 0 504.18 43.093 A 17.326 17.326 0 0 0 507.9 40.25 A 9.646 9.646 0 0 0 510.164 36.712 A 9.504 9.504 0 0 0 510.7 33.5 A 11.114 11.114 0 0 0 510.603 31.975 Q 510.498 31.225 510.282 30.612 A 4.489 4.489 0 0 0 509.65 29.4 A 3.102 3.102 0 0 0 508.303 28.395 Q 507.334 28 505.9 28 Q 501.8 28 498.95 31 Q 496.1 34 494.65 38.8 Q 493.2 43.6 493.2 49 Q 493.2 54.364 494.415 57.109 A 5.981 5.981 0 0 0 495.45 58.75 Q 497.492 60.974 501.306 61.179 A 14.775 14.775 0 0 0 502.1 61.2 A 24.735 24.735 0 0 0 506.033 60.902 A 17.964 17.964 0 0 0 510.15 59.75 Q 513.371 58.396 515.764 56.912 A 28.271 28.271 0 0 0 516.1 56.7 Q 516.713 56.317 517.208 56.052 A 11.543 11.543 0 0 1 517.5 55.9 Q 518.1 55.6 518.5 55.6 A 1.004 1.004 0 0 1 518.918 55.685 Q 519.138 55.785 519.3 56 Q 519.6 56.4 519.6 56.9 Q 519.6 58.7 518.001 61.099 A 6.554 6.554 0 0 0 518 61.1 Q 516.559 63.261 514.024 65.341 A 29.577 29.577 0 0 1 513.45 65.8 A 25.341 25.341 0 0 1 509.129 68.494 A 31.397 31.397 0 0 1 506.5 69.65 A 23.073 23.073 0 0 1 500.194 71.091 A 27.889 27.889 0 0 1 497.7 71.2 A 19.606 19.606 0 0 1 492.82 70.627 A 13.475 13.475 0 0 1 485.8 66.35 A 16.25 16.25 0 0 1 482.477 60.007 Q 481.792 57.568 481.642 54.663 A 32.269 32.269 0 0 1 481.6 53 A 43.845 43.845 0 0 1 482.287 45.092 A 36.101 36.101 0 0 1 483.6 40 A 34.129 34.129 0 0 1 487.082 32.635 A 30.098 30.098 0 0 1 489.2 29.7 Q 492.8 25.3 497.65 22.9 A 23.439 23.439 0 0 1 508.111 20.5 A 27.043 27.043 0 0 1 508.2 20.5 A 25.56 25.56 0 0 1 512.137 20.783 Q 514.194 21.105 515.847 21.79 A 11.182 11.182 0 0 1 518.6 23.4 A 9.422 9.422 0 0 1 522.028 29.457 A 13.999 13.999 0 0 1 522.2 31.7 Q 522.2 37.2 518.55 41.3 Q 515.461 44.77 510.081 47.38 A 43.555 43.555 0 0 1 508.05 48.3 Q 502.163 50.792 494.319 52.62 A 125.352 125.352 0 0 1 491.7 53.2 Z" id="11" vector-effect="non-scaling-stroke"/>
		<path d="M 537.31 70.647 A 20.354 20.354 0 0 0 542.2 71.2 Q 545.8 71.2 549.05 69.8 Q 552.3 68.4 554.9 66.25 A 23.134 23.134 0 0 0 556.997 64.296 A 17.277 17.277 0 0 0 559 61.75 A 13.256 13.256 0 0 0 559.714 60.494 Q 560.076 59.762 560.271 59.09 A 5.342 5.342 0 0 0 560.5 57.6 Q 560.5 57.1 560.2 56.7 Q 560.038 56.485 559.818 56.385 A 1.004 1.004 0 0 0 559.4 56.3 Q 559.169 56.3 558.904 56.35 A 4.001 4.001 0 0 0 558.5 56.45 A 2.323 2.323 0 0 0 558.272 56.533 Q 557.811 56.726 557.1 57.2 Q 554.8 58.8 552.3 60.05 Q 550.816 60.792 548.943 61.094 A 17.267 17.267 0 0 1 546.2 61.3 Q 544.52 61.3 543.153 60.926 A 7.225 7.225 0 0 1 539.65 58.85 Q 537.4 56.4 537.4 49 A 41.979 41.979 0 0 1 537.537 45.578 A 35.076 35.076 0 0 1 538.8 38.6 A 30.548 30.548 0 0 1 539.19 37.359 Q 539.804 35.547 540.584 34.036 A 16.737 16.737 0 0 1 542.65 30.9 A 9.923 9.923 0 0 1 544.183 29.418 A 6.468 6.468 0 0 1 548.2 28 Q 550.2 28 552.05 28.7 Q 553.9 29.4 555.45 30.3 A 106.303 106.303 0 0 1 556.375 30.843 Q 556.815 31.105 557.212 31.347 A 57.12 57.12 0 0 1 558.1 31.9 A 4.822 4.822 0 0 0 558.189 31.952 Q 558.435 32.093 558.726 32.222 A 8.285 8.285 0 0 0 559.3 32.45 A 7.545 7.545 0 0 0 559.454 32.503 Q 560.045 32.7 560.4 32.7 A 1.449 1.449 0 0 0 561.102 32.507 Q 561.339 32.378 561.575 32.161 A 4.105 4.105 0 0 0 562 31.7 A 6.934 6.934 0 0 0 562.77 30.487 A 9.581 9.581 0 0 0 563.3 29.2 A 10.576 10.576 0 0 0 563.304 29.188 A 9.434 9.434 0 0 0 563.8 26.2 A 6.52 6.52 0 0 0 563.717 25.133 Q 563.445 23.492 562.283 22.518 A 5.24 5.24 0 0 0 560.6 21.6 A 16.849 16.849 0 0 0 560.493 21.564 Q 558.825 21.003 556.889 20.738 A 27.217 27.217 0 0 0 553.2 20.5 A 29.609 29.609 0 0 0 552.448 20.51 A 24.37 24.37 0 0 0 539.15 24.65 A 27.199 27.199 0 0 0 534.903 28.192 A 30.118 30.118 0 0 0 529.45 36 Q 525.9 43.2 525.9 52.2 Q 525.9 57.088 527.085 60.762 A 15.894 15.894 0 0 0 530.1 66.3 A 13.493 13.493 0 0 0 537.31 70.647 Z" id="12" vector-effect="non-scaling-stroke"/>
		<path d="M 570 59.6 L 573.9 29.1 L 570.7 29.1 A 2.021 2.021 0 0 1 570.097 29.018 Q 569.438 28.812 569.263 28.09 A 2.511 2.511 0 0 1 569.2 27.5 Q 569.2 26.5 570.55 24.6 Q 571.9 22.7 574 20.4 Q 576.1 18.1 578.35 16 A 53.028 53.028 0 0 1 579.988 14.531 Q 581.313 13.394 582.5 12.55 Q 584.398 11.202 585.398 11.2 A 0.996 0.996 0 0 1 585.4 11.2 A 2.201 2.201 0 0 1 585.963 11.267 A 1.381 1.381 0 0 1 586.9 12.05 A 2.731 2.731 0 0 1 587.119 12.772 Q 587.223 13.401 587.1 14.2 L 586.2 22.1 L 597.4 22.1 A 7.053 7.053 0 0 1 597.919 22.118 Q 598.768 22.181 599.055 22.469 A 0.509 0.509 0 0 1 599.15 22.6 A 0.876 0.876 0 0 1 599.226 22.837 Q 599.316 23.331 599 24.2 Q 597.8 27.6 596.75 28.35 A 2.922 2.922 0 0 1 595.997 28.721 Q 595.198 28.995 593.937 29.071 A 17.28 17.28 0 0 1 592.9 29.1 L 584.9 29.1 L 582.4 50.5 Q 582.2 52.4 582.05 54.1 Q 581.9 55.8 581.9 57.2 A 7.592 7.592 0 0 0 581.978 58.327 Q 582.192 59.752 583 60.45 A 3.235 3.235 0 0 0 583.997 61.02 Q 585.018 61.4 586.6 61.4 A 9.692 9.692 0 0 0 588.642 61.195 A 7.327 7.327 0 0 0 590.75 60.4 A 18.415 18.415 0 0 1 591.465 60.01 Q 592.509 59.474 593.057 59.409 A 1.212 1.212 0 0 1 593.2 59.4 Q 593.922 59.4 593.992 60.214 A 2.155 2.155 0 0 1 594 60.4 A 2.732 2.732 0 0 1 593.91 61.055 Q 593.692 61.927 592.95 63.2 Q 592.044 64.754 590.392 66.345 A 22.743 22.743 0 0 1 589.85 66.85 A 15.911 15.911 0 0 1 586.999 68.882 A 20.519 20.519 0 0 1 584.8 69.95 A 16.058 16.058 0 0 1 580.738 71.024 A 20.617 20.617 0 0 1 578 71.2 A 12.852 12.852 0 0 1 575.541 70.982 Q 572.655 70.418 571.25 68.4 A 7.085 7.085 0 0 1 570.295 66.353 Q 569.666 64.239 569.861 61.129 A 28.745 28.745 0 0 1 570 59.6 Z" id="13" vector-effect="non-scaling-stroke"/>
		<path d="M 619.2 52 L 613 48 Q 609.1 45.5 606.45 42.65 A 9.717 9.717 0 0 1 604.01 37.649 A 13.71 13.71 0 0 1 603.8 35.2 A 13.669 13.669 0 0 1 604.936 29.561 A 13.268 13.268 0 0 1 608.8 24.65 A 16.597 16.597 0 0 1 614.388 21.743 Q 616.802 20.993 619.713 20.735 A 36.151 36.151 0 0 1 622.9 20.6 Q 628.121 20.6 631.079 21.465 A 10.455 10.455 0 0 1 632.3 21.9 A 5.592 5.592 0 0 1 633.906 22.92 Q 635.104 24.036 635.272 25.804 A 6.283 6.283 0 0 1 635.3 26.4 A 13.919 13.919 0 0 1 635.195 28.163 Q 635.019 29.538 634.55 30.6 A 4.441 4.441 0 0 1 634.144 31.339 Q 633.884 31.714 633.576 31.943 A 1.759 1.759 0 0 1 632.5 32.3 A 2.159 2.159 0 0 1 632.211 32.279 Q 631.908 32.237 631.508 32.118 A 7.639 7.639 0 0 1 631.45 32.1 Q 630.8 31.9 630.3 31.6 Q 629.5 31.1 627.8 30.2 Q 626.1 29.3 624 28.55 Q 621.9 27.8 619.6 27.8 A 6.391 6.391 0 0 0 617.887 28.019 A 4.842 4.842 0 0 0 615.85 29.15 A 4.466 4.466 0 0 0 614.474 31.807 A 6.38 6.38 0 0 0 614.4 32.8 A 4.969 4.969 0 0 0 614.682 34.5 A 4.397 4.397 0 0 0 615.6 36 A 7.652 7.652 0 0 0 616.506 36.822 Q 617.511 37.609 619.074 38.43 A 29.213 29.213 0 0 0 619.6 38.7 L 626.1 41.7 A 27.955 27.955 0 0 1 629.391 43.487 Q 631.075 44.562 632.384 45.795 A 17.04 17.04 0 0 1 632.75 46.15 Q 634.914 48.314 635.242 52.243 A 17.55 17.55 0 0 1 635.3 53.7 A 20.112 20.112 0 0 1 634.834 58.144 A 14.32 14.32 0 0 1 632.45 63.5 Q 629.6 67.4 624.95 69.3 A 26.008 26.008 0 0 1 615.165 71.2 A 29.475 29.475 0 0 1 615 71.2 Q 610.013 71.2 606.425 70.188 A 16.516 16.516 0 0 1 603.05 68.85 A 10.799 10.799 0 0 1 600.947 67.398 A 6.353 6.353 0 0 1 598.7 62.5 A 10.39 10.39 0 0 1 598.96 60.143 A 9.172 9.172 0 0 1 599.25 59.15 Q 599.523 58.381 599.931 57.993 A 1.363 1.363 0 0 1 600.9 57.6 A 1.91 1.91 0 0 1 601.269 57.638 Q 601.519 57.688 601.8 57.8 Q 602.3 58 603.7 58.9 A 31.001 31.001 0 0 0 606.627 60.575 A 37.092 37.092 0 0 0 608.15 61.3 Q 610.6 62.4 613.15 63.05 Q 615.7 63.7 617.9 63.7 Q 619.842 63.7 621.14 63.129 A 4.241 4.241 0 0 0 622.55 62.15 A 5.222 5.222 0 0 0 623.829 59.664 A 7.649 7.649 0 0 0 624 58 A 5.154 5.154 0 0 0 623.782 56.468 A 4.195 4.195 0 0 0 622.85 54.85 Q 621.811 53.721 619.671 52.306 A 38.117 38.117 0 0 0 619.2 52 Z" id="14" vector-effect="non-scaling-stroke"/>
		<path d="M 665.6 83.8 L 673 22.5 A 42.361 42.361 0 0 1 674.307 15.86 Q 675.296 12.426 676.845 9.765 A 18.721 18.721 0 0 1 680.25 5.45 Q 686.1 0 696.1 0 A 23.366 23.366 0 0 1 698.234 0.091 Q 701.188 0.363 702.65 1.45 Q 704.6 2.9 704.6 5.8 A 12.865 12.865 0 0 1 704.393 8.141 A 11.306 11.306 0 0 1 704.2 9 Q 703.8 10.5 703.1 11.45 A 2.748 2.748 0 0 1 702.608 11.971 A 1.885 1.885 0 0 1 701.4 12.4 Q 700.626 12.4 699.104 11.231 A 16.185 16.185 0 0 1 699 11.15 A 27.567 27.567 0 0 0 697.056 9.769 A 35.843 35.843 0 0 0 695.3 8.7 Q 693.2 7.5 690.7 7.5 Q 688.043 7.5 686.715 9.672 A 6.83 6.83 0 0 0 686.15 10.85 A 24.444 24.444 0 0 0 685.336 13.536 Q 684.684 16.177 684.3 19.7 L 681 48.8 Q 680.3 54.7 679.8 60.75 Q 679.3 66.8 678.8 72 A 18.59 18.59 0 0 1 678.399 74.163 Q 677.992 75.841 677.25 77.8 Q 676 81.1 674.2 84.25 A 48.238 48.238 0 0 1 672.754 86.628 Q 672.036 87.731 671.334 88.652 A 24.931 24.931 0 0 1 670.7 89.45 Q 669 91.5 667.8 91.5 Q 666.5 91.5 665.9 90.65 Q 665.376 89.908 665.31 88.747 A 6.064 6.064 0 0 1 665.3 88.4 Q 665.3 86.3 665.6 83.8 Z M 690.9 29.1 L 667.3 29.1 A 1.536 1.536 0 0 1 666.92 29.056 A 0.975 0.975 0 0 1 666.3 28.6 Q 666.053 28.188 666.145 27.639 A 2.215 2.215 0 0 1 666.2 27.4 L 666.9 25.5 Q 667.476 23.854 668.12 23.088 A 2.641 2.641 0 0 1 668.4 22.8 Q 669.2 22.1 672.3 22.1 L 696.3 22.1 A 1.505 1.505 0 0 1 696.676 22.143 Q 697.517 22.36 697.101 23.696 A 4.581 4.581 0 0 1 697.1 23.7 A 23.855 23.855 0 0 1 696.497 25.23 Q 695.851 26.708 695.166 27.595 A 5.963 5.963 0 0 1 695 27.8 Q 693.98 29.006 691.324 29.093 A 12.921 12.921 0 0 1 690.9 29.1 Z" id="16" vector-effect="non-scaling-stroke"/>
		<path d="M 706.242 70.503 A 23.502 23.502 0 0 0 711.7 71.1 Q 717.2 71.1 722 68.75 Q 726.8 66.4 730.4 62.25 A 29.835 29.835 0 0 0 731.169 61.327 A 31.611 31.611 0 0 0 736.05 52.65 A 31.088 31.088 0 0 0 736.641 50.929 A 33.275 33.275 0 0 0 738.1 41 A 38.924 38.924 0 0 0 737.844 36.404 Q 737.02 29.49 733.55 25.6 Q 730.493 22.174 725.608 21.049 A 23.213 23.213 0 0 0 720.4 20.5 Q 715 20.5 710.15 22.85 Q 705.3 25.2 701.6 29.4 A 30.507 30.507 0 0 0 700.59 30.608 A 32.58 32.58 0 0 0 695.75 39.15 A 30.636 30.636 0 0 0 694.616 42.712 A 34.518 34.518 0 0 0 693.6 51.2 A 35.627 35.627 0 0 0 693.745 54.477 Q 694.429 61.882 698.35 66.05 A 15.49 15.49 0 0 0 706.242 70.503 Z M 714.1 63.6 A 8.843 8.843 0 0 0 720.542 60.908 A 11.256 11.256 0 0 0 720.65 60.8 Q 723.4 58 724.85 53.1 A 34.482 34.482 0 0 0 726.022 47.208 A 45.195 45.195 0 0 0 726.3 42.1 A 35.196 35.196 0 0 0 726.09 38.125 Q 725.868 36.18 725.413 34.559 A 14.815 14.815 0 0 0 724.35 31.8 A 7.104 7.104 0 0 0 722.437 29.411 Q 721.063 28.331 719.133 28.078 A 9.478 9.478 0 0 0 717.9 28 A 8.953 8.953 0 0 0 711.801 30.38 A 11.842 11.842 0 0 0 711.35 30.8 A 15.417 15.417 0 0 0 708.723 34.293 Q 707.818 35.908 707.139 37.88 A 27.092 27.092 0 0 0 706.95 38.45 A 31.724 31.724 0 0 0 705.718 44.159 A 42.86 42.86 0 0 0 705.4 49.5 A 34.817 34.817 0 0 0 705.594 53.306 Q 706.037 57.327 707.496 59.825 A 10.039 10.039 0 0 0 707.6 60 Q 709.598 63.269 713.328 63.57 A 9.621 9.621 0 0 0 714.1 63.6 Z" id="17" vector-effect="non-scaling-stroke"/>
		<path d="M 755 67.2 L 752.6 52.1 Q 756.3 42.5 760.15 35.45 A 65.099 65.099 0 0 1 762.998 30.697 Q 765.469 26.968 768 24.5 Q 770.874 21.698 773.8 20.909 A 8.802 8.802 0 0 1 776.1 20.6 Q 777.703 20.6 778.675 21.305 A 3.055 3.055 0 0 1 779.4 22.05 Q 780.374 23.462 780.399 25.585 A 9.551 9.551 0 0 1 780.4 25.7 Q 780.4 27.7 779.95 29.55 A 11.266 11.266 0 0 1 779.518 30.946 Q 779.234 31.682 778.864 32.277 A 6.418 6.418 0 0 1 778.65 32.6 A 3.485 3.485 0 0 1 778.085 33.233 A 2.218 2.218 0 0 1 776.6 33.8 A 4.116 4.116 0 0 1 775.59 33.666 Q 775.127 33.549 774.628 33.33 A 8.291 8.291 0 0 1 774.15 33.1 A 5.446 5.446 0 0 0 772.95 32.66 Q 772.36 32.514 771.659 32.45 A 12.784 12.784 0 0 0 770.5 32.4 A 2.047 2.047 0 0 0 769.566 32.659 Q 768.335 33.296 766.7 35.5 Q 765.029 37.752 763.279 41.087 A 75.812 75.812 0 0 0 761.95 43.75 Q 759.5 48.9 757.6 55.05 A 68.513 68.513 0 0 0 755.194 65.698 A 62.709 62.709 0 0 0 755 67.2 A 2.038 2.038 0 0 1 754.529 68.299 Q 754.304 68.575 753.975 68.825 A 4.321 4.321 0 0 1 753.8 68.95 A 8.863 8.863 0 0 1 752.206 69.805 A 10.893 10.893 0 0 1 751.25 70.15 A 20.876 20.876 0 0 1 749.581 70.596 A 16.826 16.826 0 0 1 748.5 70.8 Q 747.52 70.951 746.938 70.988 A 5.374 5.374 0 0 1 746.6 71 A 6.057 6.057 0 0 1 745.92 70.965 Q 745.117 70.874 744.65 70.55 A 1.108 1.108 0 0 1 744.311 70.143 Q 743.985 69.523 743.95 68.2 Q 743.911 66.71 744.21 63.805 A 108.294 108.294 0 0 1 744.4 62.1 L 749.1 20.5 L 756.1 20.5 Q 757.549 20.5 758.719 22.554 A 9.2 9.2 0 0 1 758.8 22.7 A 9.867 9.867 0 0 1 759.941 26.483 A 12.203 12.203 0 0 1 760 27.7 A 6.842 6.842 0 0 1 759.947 28.493 Q 759.801 29.731 759.25 31.75 A 112.329 112.329 0 0 1 758.215 35.305 A 134.096 134.096 0 0 1 757.5 37.55 A 401.13 401.13 0 0 1 756.663 40.075 Q 756.278 41.224 755.929 42.238 A 220.43 220.43 0 0 1 755.7 42.9 L 753.1 51.1 L 756.8 50.5 L 755 67.2 Z" id="18" vector-effect="non-scaling-stroke"/>
		<path d="M 810.9 67.2 L 817 59.1 Q 819.7 60.9 822.2 61.9 A 29.17 29.17 0 0 0 824.576 62.739 A 21.327 21.327 0 0 0 826.85 63.3 Q 829 63.7 830.8 63.7 A 7.787 7.787 0 0 0 836.052 61.67 A 10.722 10.722 0 0 0 836.8 60.95 A 14.955 14.955 0 0 0 838.963 57.958 Q 840.091 55.942 840.9 53.3 A 33.368 33.368 0 0 0 842.103 47.464 A 44.633 44.633 0 0 0 842.4 42.2 A 64.074 64.074 0 0 0 842.333 39.159 Q 842.193 36.225 841.762 34.25 A 14.361 14.361 0 0 0 841.55 33.4 Q 840.855 30.948 839.459 30.5 A 2.145 2.145 0 0 0 838.8 30.4 Q 837.965 30.4 836.099 31.647 A 23.547 23.547 0 0 0 835.8 31.85 A 14.193 14.193 0 0 0 834.409 32.961 Q 833.021 34.206 831.353 36.183 A 55.362 55.362 0 0 0 830.8 36.85 A 46.031 46.031 0 0 0 828.645 39.731 Q 826.66 42.592 824.45 46.5 Q 821.825 51.141 819.056 57.633 A 188.412 188.412 0 0 0 817.3 61.9 L 814.3 53 A 169.077 169.077 0 0 1 817.756 45.619 Q 821.48 38.172 824.994 33.377 A 50.421 50.421 0 0 1 825.05 33.3 Q 830.082 26.46 834.59 23.582 A 18.392 18.392 0 0 1 834.8 23.45 Q 838.221 21.331 841.254 20.787 A 11.592 11.592 0 0 1 843.3 20.6 Q 848.708 20.6 851.132 24.984 A 10.879 10.879 0 0 1 851.3 25.3 A 19.208 19.208 0 0 1 852.809 29.46 Q 853.31 31.5 853.529 33.915 A 44.14 44.14 0 0 1 853.7 37.9 Q 853.7 47.6 850.25 55.1 A 29.414 29.414 0 0 1 844.805 63.225 A 26.825 26.825 0 0 1 840.45 66.9 A 24.862 24.862 0 0 1 829.802 70.897 A 32.419 32.419 0 0 1 825.3 71.2 A 56.279 56.279 0 0 1 820.999 71.045 Q 818.902 70.884 817.102 70.555 A 26.886 26.886 0 0 1 815.05 70.1 Q 810.9 69 808.95 67.1 Q 807.181 65.377 807.181 63.242 A 5.323 5.323 0 0 1 807.2 62.8 L 814.2 0 L 821.2 0 Q 822.649 0 823.819 2.054 A 9.2 9.2 0 0 1 823.9 2.2 A 9.867 9.867 0 0 1 825.041 5.983 A 12.203 12.203 0 0 1 825.1 7.2 A 44.568 44.568 0 0 1 824.973 10.643 A 33.925 33.925 0 0 1 824.65 13.4 A 72.306 72.306 0 0 1 824.315 15.306 Q 823.888 17.575 823.2 20.6 L 816.2 50.7 L 818.2 66.2 L 825.3 71.2 Q 824.646 71.2 822.892 70.833 A 59.118 59.118 0 0 1 822.05 70.65 Q 819.763 70.137 816.952 69.275 A 98.155 98.155 0 0 1 816.55 69.15 Q 813.5 68.2 810.9 67.2 Z" id="20" vector-effect="non-scaling-stroke"/>
		<path d="M 868.2 53.2 L 866.9 47.2 A 49.052 49.052 0 0 0 873.423 45.935 A 40.87 40.87 0 0 0 877 44.8 A 23.906 23.906 0 0 0 880.68 43.093 A 17.326 17.326 0 0 0 884.4 40.25 A 9.646 9.646 0 0 0 886.664 36.712 A 9.504 9.504 0 0 0 887.2 33.5 A 11.114 11.114 0 0 0 887.103 31.975 Q 886.998 31.225 886.782 30.612 A 4.489 4.489 0 0 0 886.15 29.4 A 3.102 3.102 0 0 0 884.803 28.395 Q 883.834 28 882.4 28 Q 878.3 28 875.45 31 Q 872.6 34 871.15 38.8 Q 869.7 43.6 869.7 49 Q 869.7 54.364 870.915 57.109 A 5.981 5.981 0 0 0 871.95 58.75 Q 873.992 60.974 877.806 61.179 A 14.775 14.775 0 0 0 878.6 61.2 A 24.735 24.735 0 0 0 882.533 60.902 A 17.964 17.964 0 0 0 886.65 59.75 Q 889.871 58.396 892.264 56.912 A 28.271 28.271 0 0 0 892.6 56.7 Q 893.213 56.317 893.708 56.052 A 11.543 11.543 0 0 1 894 55.9 Q 894.6 55.6 895 55.6 A 1.004 1.004 0 0 1 895.418 55.685 Q 895.638 55.785 895.8 56 Q 896.1 56.4 896.1 56.9 Q 896.1 58.7 894.501 61.099 A 6.554 6.554 0 0 0 894.5 61.1 Q 893.059 63.261 890.524 65.341 A 29.577 29.577 0 0 1 889.95 65.8 A 25.341 25.341 0 0 1 885.629 68.494 A 31.397 31.397 0 0 1 883 69.65 A 23.073 23.073 0 0 1 876.694 71.091 A 27.889 27.889 0 0 1 874.2 71.2 A 19.606 19.606 0 0 1 869.32 70.627 A 13.475 13.475 0 0 1 862.3 66.35 A 16.25 16.25 0 0 1 858.977 60.007 Q 858.292 57.568 858.142 54.663 A 32.269 32.269 0 0 1 858.1 53 A 43.845 43.845 0 0 1 858.787 45.092 A 36.101 36.101 0 0 1 860.1 40 A 34.129 34.129 0 0 1 863.582 32.635 A 30.098 30.098 0 0 1 865.7 29.7 Q 869.3 25.3 874.15 22.9 A 23.439 23.439 0 0 1 884.611 20.5 A 27.043 27.043 0 0 1 884.7 20.5 A 25.56 25.56 0 0 1 888.637 20.783 Q 890.694 21.105 892.347 21.79 A 11.182 11.182 0 0 1 895.1 23.4 A 9.422 9.422 0 0 1 898.528 29.457 A 13.999 13.999 0 0 1 898.7 31.7 Q 898.7 37.2 895.05 41.3 Q 891.961 44.77 886.581 47.38 A 43.555 43.555 0 0 1 884.55 48.3 Q 878.663 50.792 870.819 52.62 A 125.352 125.352 0 0 1 868.2 53.2 Z" id="21" vector-effect="non-scaling-stroke"/>
		<path d="M 943.4 24.1 L 940.5 34.6 A 38.806 38.806 0 0 0 936.676 32.367 A 46.769 46.769 0 0 0 934.45 31.3 A 59.636 59.636 0 0 0 931.237 29.967 A 43.492 43.492 0 0 0 928.25 28.95 Q 925.4 28.1 924 28.1 A 5.581 5.581 0 0 0 920.638 29.249 Q 919.869 29.813 919.153 30.654 A 11.424 11.424 0 0 0 918.95 30.9 A 15.969 15.969 0 0 0 917.163 33.714 Q 916.131 35.756 915.4 38.4 A 35.138 35.138 0 0 0 914.349 44.036 A 45.769 45.769 0 0 0 914.1 48.9 A 64.074 64.074 0 0 0 914.167 51.941 Q 914.307 54.875 914.738 56.85 A 14.361 14.361 0 0 0 914.95 57.7 Q 915.645 60.152 917.041 60.6 A 2.145 2.145 0 0 0 917.7 60.7 A 2.045 2.045 0 0 0 918.432 60.536 Q 919.516 60.109 921.292 58.576 A 33.47 33.47 0 0 0 922.05 57.9 A 23.889 23.889 0 0 0 923.865 56.017 Q 925.736 53.872 927.987 50.547 A 105.71 105.71 0 0 0 929.4 48.4 Q 933.7 41.7 938.6 29.9 L 941.4 38.8 Q 936 50.8 931.15 57.75 A 60.154 60.154 0 0 1 928.163 61.698 Q 925.033 65.477 922.101 67.466 A 18.027 18.027 0 0 1 921.9 67.6 Q 917.5 70.5 913.2 70.5 A 10.703 10.703 0 0 1 909.941 70.033 A 7.971 7.971 0 0 1 905.2 65.95 A 17.644 17.644 0 0 1 903.761 62.117 Q 902.804 58.404 902.8 53.241 A 55.431 55.431 0 0 1 902.8 53.2 A 40.032 40.032 0 0 1 903.793 44.162 A 35.379 35.379 0 0 1 904.9 40.35 A 35.318 35.318 0 0 1 908.324 33.208 A 30.727 30.727 0 0 1 910.65 30 Q 914.3 25.6 919.15 23.1 Q 924 20.6 929.5 20.6 A 27.946 27.946 0 0 1 934.1 20.964 A 22.593 22.593 0 0 1 937.35 21.75 Q 940.9 22.9 943.4 24.1 Z M 934.3 65.4 L 939.3 38.3 L 937.5 35.9 L 937.6 23.1 Q 942.655 22.468 945.526 21.836 A 27.129 27.129 0 0 0 946.9 21.5 Q 949.636 20.745 950.77 20.703 A 3.464 3.464 0 0 1 950.9 20.7 Q 951.9 20.7 951.9 21.9 A 1.622 1.622 0 0 1 951.857 22.198 Q 951.702 22.927 950.995 25.069 A 155.405 155.405 0 0 1 950.65 26.1 Q 949.81 28.586 948.903 32.02 A 171.916 171.916 0 0 0 948 35.6 A 59.135 59.135 0 0 0 946.823 42.158 A 78.585 78.585 0 0 0 946.3 48.6 L 945.6 66.6 A 36.524 36.524 0 0 1 945.001 71.925 Q 944.457 74.757 943.45 77.116 A 20.684 20.684 0 0 1 942.85 78.4 A 23.542 23.542 0 0 1 939.273 83.62 A 20.554 20.554 0 0 1 936.5 86.15 Q 932.6 89.1 928.15 90.4 A 32.267 32.267 0 0 1 922.149 91.573 A 28.014 28.014 0 0 1 919.5 91.7 A 27.638 27.638 0 0 1 914.369 91.241 A 22.696 22.696 0 0 1 910.75 90.25 A 14.356 14.356 0 0 1 906.623 87.947 A 12.933 12.933 0 0 1 904.45 85.7 Q 902.1 82.6 902.1 77.6 A 3.933 3.933 0 0 1 902.139 77.022 Q 902.245 76.31 902.644 76.05 A 0.996 0.996 0 0 1 903.2 75.9 A 1.668 1.668 0 0 1 903.542 75.939 Q 903.893 76.013 904.348 76.227 A 6.65 6.65 0 0 1 904.5 76.3 Q 905.3 76.7 906.6 77.4 Q 907.978 78.166 910.089 79.254 A 266.715 266.715 0 0 0 911.45 79.95 Q 914.5 81.5 917.8 82.7 Q 920.327 83.619 922.384 83.834 A 11.688 11.688 0 0 0 923.6 83.9 Q 925.2 83.9 926.65 83.2 A 5.409 5.409 0 0 0 927.812 82.425 Q 928.308 81.999 928.793 81.418 A 12.208 12.208 0 0 0 929.45 80.55 Q 930.8 78.6 932 74.95 A 48.486 48.486 0 0 0 932.813 72.175 Q 933.578 69.272 934.3 65.4 Z" id="22" vector-effect="non-scaling-stroke"/>
		<path d="M 966.7 71.2 L 959.7 71.2 A 2.204 2.204 0 0 1 958.693 70.98 Q 957.853 70.556 957.517 69.313 A 4.83 4.83 0 0 1 957.5 69.25 Q 957 67.3 957 65.2 A 63.789 63.789 0 0 1 957.067 62.203 Q 957.137 60.718 957.28 59.4 A 37.189 37.189 0 0 1 957.35 58.8 Q 957.7 56 958.1 52.6 L 961.7 20.5 L 968.7 20.5 A 2.716 2.716 0 0 1 969.85 20.731 Q 970.519 21.04 970.926 21.761 A 4.101 4.101 0 0 1 971.3 22.7 Q 971.891 24.866 971.9 27.613 A 26.017 26.017 0 0 1 971.9 27.7 A 21.924 21.924 0 0 1 971.805 29.696 A 25.878 25.878 0 0 1 971.7 30.65 Q 971.5 32.2 971.1 35.4 L 969.2 51.7 A 506.412 506.412 0 0 1 968.906 54.194 Q 968.482 57.718 968.112 60.317 A 179.894 179.894 0 0 1 968.1 60.4 Q 967.756 62.806 967.507 64.74 A 191.639 191.639 0 0 0 967.3 66.4 Q 967 68.9 966.7 71.2 Z M 968.5 14.8 Q 965.7 14.8 963.65 12.9 A 6.309 6.309 0 0 1 961.636 8.702 A 8.701 8.701 0 0 1 961.6 7.9 A 9.13 9.13 0 0 1 961.908 5.46 A 6.548 6.548 0 0 1 964 2.15 Q 966.4 0.1 969.5 0.1 A 8.157 8.157 0 0 1 971.894 0.437 A 6.657 6.657 0 0 1 974.35 1.8 Q 976.3 3.5 976.3 6.9 A 8.239 8.239 0 0 1 975.778 9.88 A 7.446 7.446 0 0 1 974 12.55 Q 971.7 14.8 968.5 14.8 Z" id="23" vector-effect="non-scaling-stroke"/>
		<path d="M 1019.4 70.6 L 1012.3 70.6 A 1.798 1.798 0 0 1 1011.463 70.41 Q 1010.966 70.153 1010.65 69.55 A 6.441 6.441 0 0 1 1010.035 67.757 A 7.655 7.655 0 0 1 1009.95 67.2 A 30.863 30.863 0 0 1 1009.871 66.436 Q 1009.805 65.702 1009.8 65.174 A 8.911 8.911 0 0 1 1009.8 65.1 Q 1009.8 64.16 1009.89 62.858 A 63.797 63.797 0 0 1 1010 61.5 Q 1010.2 59.3 1010.5 56.85 Q 1010.8 54.4 1011.1 52.6 L 1012.8 42.2 Q 1013.1 40.2 1013.4 38.45 Q 1013.7 36.7 1013.7 34.7 A 6.017 6.017 0 0 0 1013.641 33.831 Q 1013.577 33.391 1013.442 33.033 A 2.553 2.553 0 0 0 1013.1 32.4 A 2.009 2.009 0 0 0 1012.462 31.833 Q 1012.039 31.6 1011.5 31.6 A 2.257 2.257 0 0 0 1010.75 31.754 Q 1009.625 32.159 1007.772 33.634 A 32.774 32.774 0 0 0 1007.2 34.1 Q 1005.02 35.917 1002.629 38.868 A 60.775 60.775 0 0 0 1000.8 41.25 Q 997.427 45.864 994.693 52.299 A 75.084 75.084 0 0 0 994.65 52.4 A 46.622 46.622 0 0 0 991.835 61.812 A 57.264 57.264 0 0 0 991.1 66.9 L 988.5 52.1 A 90.169 90.169 0 0 1 991.269 45.004 Q 993.141 40.775 995.25 37.4 A 62.762 62.762 0 0 1 998.441 32.747 Q 1000.645 29.839 1002.9 27.7 Q 1006.8 24 1010.45 22.3 A 22.619 22.619 0 0 1 1012.859 21.332 Q 1015.063 20.6 1016.9 20.6 A 13.432 13.432 0 0 1 1018.827 20.73 Q 1020.536 20.978 1021.75 21.7 Q 1023.6 22.8 1024.45 24.75 A 9.916 9.916 0 0 1 1025.137 27.15 A 13.564 13.564 0 0 1 1025.3 29.3 Q 1025.3 31.8 1024.95 34.25 A 469.761 469.761 0 0 1 1024.299 38.652 A 514.379 514.379 0 0 1 1024.2 39.3 L 1019.4 70.6 Z M 980.2 62.1 L 984.9 20.5 L 991.9 20.5 Q 993.349 20.5 994.519 22.554 A 9.2 9.2 0 0 1 994.6 22.7 A 9.867 9.867 0 0 1 995.741 26.483 A 12.203 12.203 0 0 1 995.8 27.7 A 6.842 6.842 0 0 1 995.747 28.493 Q 995.601 29.731 995.05 31.75 A 112.329 112.329 0 0 1 994.015 35.305 A 134.096 134.096 0 0 1 993.3 37.55 A 401.13 401.13 0 0 1 992.463 40.075 Q 992.078 41.224 991.729 42.238 A 220.43 220.43 0 0 1 991.5 42.9 L 988.9 51.1 L 992.6 50.5 L 991 66.9 Q 990.9 67.9 989.8 68.7 Q 988.7 69.5 987.2 70 Q 986.281 70.306 985.419 70.519 A 18.728 18.728 0 0 1 984.35 70.75 Q 983.332 70.939 982.741 70.985 A 4.418 4.418 0 0 1 982.4 71 A 6.057 6.057 0 0 1 981.72 70.965 Q 980.917 70.874 980.45 70.55 A 1.108 1.108 0 0 1 980.111 70.143 Q 979.785 69.523 979.75 68.2 Q 979.711 66.71 980.01 63.805 A 108.294 108.294 0 0 1 980.2 62.1 Z" id="24" vector-effect="non-scaling-stroke"/>
		<path d="M 1072.7 70.6 L 1065.6 70.6 A 1.798 1.798 0 0 1 1064.763 70.41 Q 1064.266 70.153 1063.95 69.55 A 6.441 6.441 0 0 1 1063.335 67.757 A 7.655 7.655 0 0 1 1063.25 67.2 A 30.863 30.863 0 0 1 1063.171 66.436 Q 1063.105 65.702 1063.1 65.174 A 8.911 8.911 0 0 1 1063.1 65.1 Q 1063.1 64.16 1063.19 62.858 A 63.797 63.797 0 0 1 1063.3 61.5 Q 1063.5 59.3 1063.8 56.85 Q 1064.1 54.4 1064.4 52.6 L 1066.1 42.2 Q 1066.4 40.2 1066.7 38.45 Q 1067 36.7 1067 34.7 A 6.017 6.017 0 0 0 1066.941 33.831 Q 1066.877 33.391 1066.742 33.033 A 2.553 2.553 0 0 0 1066.4 32.4 A 2.009 2.009 0 0 0 1065.762 31.833 Q 1065.339 31.6 1064.8 31.6 A 2.257 2.257 0 0 0 1064.05 31.754 Q 1062.925 32.159 1061.072 33.634 A 32.774 32.774 0 0 0 1060.5 34.1 Q 1058.32 35.917 1055.929 38.868 A 60.775 60.775 0 0 0 1054.1 41.25 Q 1050.727 45.864 1047.993 52.299 A 75.084 75.084 0 0 0 1047.95 52.4 A 46.622 46.622 0 0 0 1045.135 61.812 A 57.264 57.264 0 0 0 1044.4 66.9 L 1041.8 52.1 A 90.169 90.169 0 0 1 1044.569 45.004 Q 1046.441 40.775 1048.55 37.4 A 62.762 62.762 0 0 1 1051.741 32.747 Q 1053.945 29.839 1056.2 27.7 Q 1060.1 24 1063.75 22.3 A 22.619 22.619 0 0 1 1066.159 21.332 Q 1068.363 20.6 1070.2 20.6 A 13.432 13.432 0 0 1 1072.127 20.73 Q 1073.836 20.978 1075.05 21.7 Q 1076.9 22.8 1077.75 24.75 A 9.916 9.916 0 0 1 1078.437 27.15 A 13.564 13.564 0 0 1 1078.6 29.3 Q 1078.6 31.8 1078.25 34.25 A 469.761 469.761 0 0 1 1077.599 38.652 A 514.379 514.379 0 0 1 1077.5 39.3 L 1072.7 70.6 Z M 1033.5 62.1 L 1038.2 20.5 L 1045.2 20.5 Q 1046.649 20.5 1047.819 22.554 A 9.2 9.2 0 0 1 1047.9 22.7 A 9.867 9.867 0 0 1 1049.041 26.483 A 12.203 12.203 0 0 1 1049.1 27.7 A 6.842 6.842 0 0 1 1049.047 28.493 Q 1048.901 29.731 1048.35 31.75 A 112.329 112.329 0 0 1 1047.315 35.305 A 134.096 134.096 0 0 1 1046.6 37.55 A 401.13 401.13 0 0 1 1045.763 40.075 Q 1045.378 41.224 1045.029 42.238 A 220.43 220.43 0 0 1 1044.8 42.9 L 1042.2 51.1 L 1045.9 50.5 L 1044.3 66.9 Q 1044.2 67.9 1043.1 68.7 Q 1042 69.5 1040.5 70 Q 1039.581 70.306 1038.719 70.519 A 18.728 18.728 0 0 1 1037.65 70.75 Q 1036.632 70.939 1036.041 70.985 A 4.418 4.418 0 0 1 1035.7 71 A 6.057 6.057 0 0 1 1035.02 70.965 Q 1034.217 70.874 1033.75 70.55 A 1.108 1.108 0 0 1 1033.411 70.143 Q 1033.085 69.523 1033.05 68.2 Q 1033.011 66.71 1033.31 63.805 A 108.294 108.294 0 0 1 1033.5 62.1 Z" id="25" vector-effect="non-scaling-stroke"/>
		<path d="M 1126 70.6 L 1118.9 70.6 A 1.798 1.798 0 0 1 1118.063 70.41 Q 1117.566 70.153 1117.25 69.55 A 6.441 6.441 0 0 1 1116.635 67.757 A 7.655 7.655 0 0 1 1116.55 67.2 A 30.863 30.863 0 0 1 1116.471 66.436 Q 1116.405 65.702 1116.4 65.174 A 8.911 8.911 0 0 1 1116.4 65.1 Q 1116.4 64.16 1116.49 62.858 A 63.797 63.797 0 0 1 1116.6 61.5 Q 1116.8 59.3 1117.1 56.85 Q 1117.4 54.4 1117.7 52.6 L 1119.4 42.2 Q 1119.7 40.2 1120 38.45 Q 1120.3 36.7 1120.3 34.7 A 6.017 6.017 0 0 0 1120.241 33.831 Q 1120.177 33.391 1120.042 33.033 A 2.553 2.553 0 0 0 1119.7 32.4 A 2.009 2.009 0 0 0 1119.062 31.833 Q 1118.639 31.6 1118.1 31.6 A 2.257 2.257 0 0 0 1117.35 31.754 Q 1116.225 32.159 1114.372 33.634 A 32.774 32.774 0 0 0 1113.8 34.1 Q 1111.62 35.917 1109.229 38.868 A 60.775 60.775 0 0 0 1107.4 41.25 Q 1104.027 45.864 1101.293 52.299 A 75.084 75.084 0 0 0 1101.25 52.4 A 46.622 46.622 0 0 0 1098.435 61.812 A 57.264 57.264 0 0 0 1097.7 66.9 L 1095.1 52.1 A 90.169 90.169 0 0 1 1097.869 45.004 Q 1099.741 40.775 1101.85 37.4 A 62.762 62.762 0 0 1 1105.041 32.747 Q 1107.245 29.839 1109.5 27.7 Q 1113.4 24 1117.05 22.3 A 22.619 22.619 0 0 1 1119.459 21.332 Q 1121.663 20.6 1123.5 20.6 A 13.432 13.432 0 0 1 1125.427 20.73 Q 1127.136 20.978 1128.35 21.7 Q 1130.2 22.8 1131.05 24.75 A 9.916 9.916 0 0 1 1131.737 27.15 A 13.564 13.564 0 0 1 1131.9 29.3 Q 1131.9 31.8 1131.55 34.25 A 469.761 469.761 0 0 1 1130.899 38.652 A 514.379 514.379 0 0 1 1130.8 39.3 L 1126 70.6 Z M 1086.8 62.1 L 1091.5 20.5 L 1098.5 20.5 Q 1099.949 20.5 1101.119 22.554 A 9.2 9.2 0 0 1 1101.2 22.7 A 9.867 9.867 0 0 1 1102.341 26.483 A 12.203 12.203 0 0 1 1102.4 27.7 A 6.842 6.842 0 0 1 1102.347 28.493 Q 1102.201 29.731 1101.65 31.75 A 112.329 112.329 0 0 1 1100.615 35.305 A 134.096 134.096 0 0 1 1099.9 37.55 A 401.13 401.13 0 0 1 1099.063 40.075 Q 1098.678 41.224 1098.329 42.238 A 220.43 220.43 0 0 1 1098.1 42.9 L 1095.5 51.1 L 1099.2 50.5 L 1097.6 66.9 Q 1097.5 67.9 1096.4 68.7 Q 1095.3 69.5 1093.8 70 Q 1092.881 70.306 1092.019 70.519 A 18.728 18.728 0 0 1 1090.95 70.75 Q 1089.932 70.939 1089.341 70.985 A 4.418 4.418 0 0 1 1089 71 A 6.057 6.057 0 0 1 1088.32 70.965 Q 1087.517 70.874 1087.05 70.55 A 1.108 1.108 0 0 1 1086.711 70.143 Q 1086.385 69.523 1086.35 68.2 Q 1086.311 66.71 1086.61 63.805 A 108.294 108.294 0 0 1 1086.8 62.1 Z" id="26" vector-effect="non-scaling-stroke"/>
		<path d="M 1148.1 53.2 L 1146.8 47.2 A 49.052 49.052 0 0 0 1153.323 45.935 A 40.87 40.87 0 0 0 1156.9 44.8 A 23.906 23.906 0 0 0 1160.58 43.093 A 17.326 17.326 0 0 0 1164.3 40.25 A 9.646 9.646 0 0 0 1166.564 36.712 A 9.504 9.504 0 0 0 1167.1 33.5 A 11.114 11.114 0 0 0 1167.003 31.975 Q 1166.898 31.225 1166.682 30.612 A 4.489 4.489 0 0 0 1166.05 29.4 A 3.102 3.102 0 0 0 1164.703 28.395 Q 1163.734 28 1162.3 28 Q 1158.2 28 1155.35 31 Q 1152.5 34 1151.05 38.8 Q 1149.6 43.6 1149.6 49 Q 1149.6 54.364 1150.815 57.109 A 5.981 5.981 0 0 0 1151.85 58.75 Q 1153.892 60.974 1157.706 61.179 A 14.775 14.775 0 0 0 1158.5 61.2 A 24.735 24.735 0 0 0 1162.433 60.902 A 17.964 17.964 0 0 0 1166.55 59.75 Q 1169.771 58.396 1172.164 56.912 A 28.271 28.271 0 0 0 1172.5 56.7 Q 1173.113 56.317 1173.608 56.052 A 11.543 11.543 0 0 1 1173.9 55.9 Q 1174.5 55.6 1174.9 55.6 A 1.004 1.004 0 0 1 1175.318 55.685 Q 1175.538 55.785 1175.7 56 Q 1176 56.4 1176 56.9 Q 1176 58.7 1174.401 61.099 A 6.554 6.554 0 0 0 1174.4 61.1 Q 1172.959 63.261 1170.424 65.341 A 29.577 29.577 0 0 1 1169.85 65.8 A 25.341 25.341 0 0 1 1165.529 68.494 A 31.397 31.397 0 0 1 1162.9 69.65 A 23.073 23.073 0 0 1 1156.594 71.091 A 27.889 27.889 0 0 1 1154.1 71.2 A 19.606 19.606 0 0 1 1149.22 70.627 A 13.475 13.475 0 0 1 1142.2 66.35 A 16.25 16.25 0 0 1 1138.877 60.007 Q 1138.192 57.568 1138.042 54.663 A 32.269 32.269 0 0 1 1138 53 A 43.845 43.845 0 0 1 1138.687 45.092 A 36.101 36.101 0 0 1 1140 40 A 34.129 34.129 0 0 1 1143.482 32.635 A 30.098 30.098 0 0 1 1145.6 29.7 Q 1149.2 25.3 1154.05 22.9 A 23.439 23.439 0 0 1 1164.511 20.5 A 27.043 27.043 0 0 1 1164.6 20.5 A 25.56 25.56 0 0 1 1168.537 20.783 Q 1170.594 21.105 1172.247 21.79 A 11.182 11.182 0 0 1 1175 23.4 A 9.422 9.422 0 0 1 1178.428 29.457 A 13.999 13.999 0 0 1 1178.6 31.7 Q 1178.6 37.2 1174.95 41.3 Q 1171.861 44.77 1166.481 47.38 A 43.555 43.555 0 0 1 1164.45 48.3 Q 1158.563 50.792 1150.719 52.62 A 125.352 125.352 0 0 1 1148.1 53.2 Z" id="27" vector-effect="non-scaling-stroke"/>
		<path d="M 1194.9 67.2 L 1192.5 52.1 Q 1196.2 42.5 1200.05 35.45 A 65.099 65.099 0 0 1 1202.898 30.697 Q 1205.369 26.968 1207.9 24.5 Q 1210.774 21.698 1213.7 20.909 A 8.802 8.802 0 0 1 1216 20.6 Q 1217.603 20.6 1218.575 21.305 A 3.055 3.055 0 0 1 1219.3 22.05 Q 1220.274 23.462 1220.299 25.585 A 9.551 9.551 0 0 1 1220.3 25.7 Q 1220.3 27.7 1219.85 29.55 A 11.266 11.266 0 0 1 1219.418 30.946 Q 1219.134 31.682 1218.764 32.277 A 6.418 6.418 0 0 1 1218.55 32.6 A 3.485 3.485 0 0 1 1217.985 33.233 A 2.218 2.218 0 0 1 1216.5 33.8 A 4.116 4.116 0 0 1 1215.49 33.666 Q 1215.027 33.549 1214.528 33.33 A 8.291 8.291 0 0 1 1214.05 33.1 A 5.446 5.446 0 0 0 1212.85 32.66 Q 1212.26 32.514 1211.559 32.45 A 12.784 12.784 0 0 0 1210.4 32.4 A 2.047 2.047 0 0 0 1209.466 32.659 Q 1208.235 33.296 1206.6 35.5 Q 1204.929 37.752 1203.179 41.087 A 75.812 75.812 0 0 0 1201.85 43.75 Q 1199.4 48.9 1197.5 55.05 A 68.513 68.513 0 0 0 1195.094 65.698 A 62.709 62.709 0 0 0 1194.9 67.2 A 2.038 2.038 0 0 1 1194.429 68.299 Q 1194.204 68.575 1193.875 68.825 A 4.321 4.321 0 0 1 1193.7 68.95 A 8.863 8.863 0 0 1 1192.106 69.805 A 10.893 10.893 0 0 1 1191.15 70.15 A 20.876 20.876 0 0 1 1189.481 70.596 A 16.826 16.826 0 0 1 1188.4 70.8 Q 1187.42 70.951 1186.838 70.988 A 5.374 5.374 0 0 1 1186.5 71 A 6.057 6.057 0 0 1 1185.82 70.965 Q 1185.017 70.874 1184.55 70.55 A 1.108 1.108 0 0 1 1184.211 70.143 Q 1183.885 69.523 1183.85 68.2 Q 1183.811 66.71 1184.11 63.805 A 108.294 108.294 0 0 1 1184.3 62.1 L 1189 20.5 L 1196 20.5 Q 1197.449 20.5 1198.619 22.554 A 9.2 9.2 0 0 1 1198.7 22.7 A 9.867 9.867 0 0 1 1199.841 26.483 A 12.203 12.203 0 0 1 1199.9 27.7 A 6.842 6.842 0 0 1 1199.847 28.493 Q 1199.701 29.731 1199.15 31.75 A 112.329 112.329 0 0 1 1198.115 35.305 A 134.096 134.096 0 0 1 1197.4 37.55 A 401.13 401.13 0 0 1 1196.563 40.075 Q 1196.178 41.224 1195.829 42.238 A 220.43 220.43 0 0 1 1195.6 42.9 L 1193 51.1 L 1196.7 50.5 L 1194.9 67.2 Z" id="28" vector-effect="non-scaling-stroke"/>
	</g>
</svg>