<?xml version="1.0" encoding="utf-8"?>
<svg xmlns="http://www.w3.org/2000/svg" style="margin: auto; background: none; display: block; shape-rendering: auto;" width="284" height="35" preserveAspectRatio="xMidYMid">
<style type="text/css">
  text {
    text-anchor: middle; font-size: 25px; opacity: 0;
  }
</style>
<g style="transform-origin: 142px 17.5px; transform: scale(0.3125);">
<g transform="translate(142,17.5)">
  <g transform="translate(0,0)"><g class="path" style="transform: scale(0.91); transform-origin: -423.49px -7.32144px; animation: 1s linear -0.636429s infinite normal forwards running breath-1e1b11ca-607b-4ffd-86a3-7b9f0759d450;"><path d="M37.93-35.27L37.93-35.27L37.93-35.27Q37.93-32.42 36.86-29.92L36.86-29.92L36.86-29.92Q35.78-27.42 33.91-25.55L33.91-25.55L33.91-25.55Q32.03-23.67 29.51-22.60L29.51-22.60L29.51-22.60Q26.99-21.52 24.14-21.52L24.14-21.52L11.45-21.52L11.45 0L6.41 0L6.41-56.02L24.14-56.02L24.14-56.02Q26.99-56.02 29.51-54.94L29.51-54.94L29.51-54.94Q32.03-53.87 33.91-51.99L33.91-51.99L33.91-51.99Q35.78-50.12 36.86-47.60L36.86-47.60L36.86-47.60Q37.93-45.08 37.93-42.23L37.93-42.23L37.93-35.27zM32.89-35.27L32.89-42.23L32.89-42.23Q32.89-44.10 32.19-45.72L32.19-45.72L32.19-45.72Q31.48-47.34 30.25-48.57L30.25-48.57L30.25-48.57Q29.02-49.80 27.40-50.51L27.40-50.51L27.40-50.51Q25.78-51.21 23.91-51.21L23.91-51.21L11.45-51.21L11.45-26.33L23.91-26.33L23.91-26.33Q25.78-26.33 27.40-27.03L27.40-27.03L27.40-27.03Q29.02-27.73 30.25-28.95L30.25-28.95L30.25-28.95Q31.48-30.16 32.19-31.78L32.19-31.78L32.19-31.78Q32.89-33.40 32.89-35.27L32.89-35.27" fill="#23d5ce" stroke="none" stroke-width="none" transform="translate(-445.6600036621094,20.68855487891606)" style="fill: rgb(35, 213, 206);"></path></g><g class="path" style="transform: scale(0.91); transform-origin: -388.375px 8.69856px; animation: 1s linear -0.612857s infinite normal forwards running breath-1e1b11ca-607b-4ffd-86a3-7b9f0759d450;"><path d="M72.66-40L52.42 16.02L47.77 16.02L54.88-3.44L41.91-40L46.72-40L57.15-9.69L57.30-7.62L57.46-9.69L67.85-40L72.66-40" fill="#23d5ce" stroke="none" stroke-width="none" transform="translate(-445.6600036621094,20.68855487891606)" style="fill: rgb(36, 255, 255);"></path></g><g class="path" style="transform: scale(0.91); transform-origin: -360.325px -4.50644px; animation: 1s linear -0.589286s infinite normal forwards running breath-1e1b11ca-607b-4ffd-86a3-7b9f0759d450;"><path d="M96.41 0L92.03 0L92.03 0Q89.84 0 87.91-0.82L87.91-0.82L87.91-0.82Q85.98-1.64 84.55-3.09L84.55-3.09L84.55-3.09Q83.13-4.53 82.29-6.45L82.29-6.45L82.29-6.45Q81.45-8.36 81.45-10.55L81.45-10.55L81.45-35.43L74.26-35.43L74.26-40L81.45-40L81.45-49.61L86.25-50.39L86.25-40L96.41-40L96.41-35.43L86.25-35.43L86.25-10.31L86.25-10.31Q86.25-9.10 86.70-8.07L86.70-8.07L86.70-8.07Q87.15-7.03 87.93-6.25L87.93-6.25L87.93-6.25Q88.71-5.47 89.77-5.02L89.77-5.02L89.77-5.02Q90.82-4.57 92.03-4.57L92.03-4.57L96.41-4.57L96.41 0" fill="#23d5ce" stroke="none" stroke-width="none" transform="translate(-445.6600036621094,20.68855487891606)" style="fill: rgb(76, 212, 204);"></path></g><g class="path" style="transform: scale(0.91); transform-origin: -327.07px -7.32144px; animation: 1s linear -0.565714s infinite normal forwards running breath-1e1b11ca-607b-4ffd-86a3-7b9f0759d450;"><path d="M131.95 0L127.15 0L127.15-29.30L127.15-29.30Q127.15-30.74 126.60-32.01L126.60-32.01L126.60-32.01Q126.05-33.28 125.12-34.22L125.12-34.22L125.12-34.22Q124.18-35.16 122.91-35.70L122.91-35.70L122.91-35.70Q121.64-36.25 120.20-36.25L120.20-36.25L116.99-36.25L116.99-36.25Q115.55-36.25 114.28-35.70L114.28-35.70L114.28-35.70Q113.01-35.16 112.07-34.22L112.07-34.22L112.07-34.22Q111.13-33.28 110.59-32.01L110.59-32.01L110.59-32.01Q110.04-30.74 110.04-29.30L110.04-29.30L110.04 0L105.23 0L105.23-56.02L110.04-56.02L110.04-36.64L110.04-36.64Q111.68-38.59 113.98-39.69L113.98-39.69L113.98-39.69Q116.29-40.78 118.98-40.78L118.98-40.78L120.20-40.78L120.20-40.78Q122.62-40.78 124.77-39.86L124.77-39.86L124.77-39.86Q126.91-38.95 128.52-37.34L128.52-37.34L128.52-37.34Q130.12-35.74 131.04-33.59L131.04-33.59L131.04-33.59Q131.95-31.45 131.95-29.02L131.95-29.02L131.95 0" fill="#23d5ce" stroke="none" stroke-width="none" transform="translate(-445.6600036621094,20.68855487891606)" style="fill: rgb(4, 155, 186);"></path></g><g class="path" style="transform: scale(0.91); transform-origin: -290.74px 0.688557px; animation: 1s linear -0.542143s infinite normal forwards running breath-1e1b11ca-607b-4ffd-86a3-7b9f0759d450;"><path d="M168.28-10.98L168.28-10.98L168.28-10.98Q168.28-8.55 167.36-6.41L167.36-6.41L167.36-6.41Q166.45-4.26 164.84-2.66L164.84-2.66L164.84-2.66Q163.24-1.05 161.09-0.14L161.09-0.14L161.09-0.14Q158.95 0.78 156.52 0.78L156.52 0.78L153.32 0.78L153.32 0.78Q150.90 0.78 148.75-0.14L148.75-0.14L148.75-0.14Q146.60-1.05 145-2.66L145-2.66L145-2.66Q143.40-4.26 142.48-6.41L142.48-6.41L142.48-6.41Q141.56-8.55 141.56-10.98L141.56-10.98L141.56-29.02L141.56-29.02Q141.56-31.45 142.48-33.59L142.48-33.59L142.48-33.59Q143.40-35.74 145-37.34L145-37.34L145-37.34Q146.60-38.95 148.75-39.86L148.75-39.86L148.75-39.86Q150.90-40.78 153.32-40.78L153.32-40.78L156.52-40.78L156.52-40.78Q158.95-40.78 161.09-39.86L161.09-39.86L161.09-39.86Q163.24-38.95 164.84-37.34L164.84-37.34L164.84-37.34Q166.45-35.74 167.36-33.59L167.36-33.59L167.36-33.59Q168.28-31.45 168.28-29.02L168.28-29.02L168.28-10.98zM163.48-10.70L163.48-29.30L163.48-29.30Q163.48-30.74 162.93-32.01L162.93-32.01L162.93-32.01Q162.38-33.28 161.45-34.22L161.45-34.22L161.45-34.22Q160.51-35.16 159.24-35.70L159.24-35.70L159.24-35.70Q157.97-36.25 156.52-36.25L156.52-36.25L153.32-36.25L153.32-36.25Q151.88-36.25 150.61-35.70L150.61-35.70L150.61-35.70Q149.34-35.16 148.40-34.22L148.40-34.22L148.40-34.22Q147.46-33.28 146.91-32.01L146.91-32.01L146.91-32.01Q146.37-30.74 146.37-29.30L146.37-29.30L146.37-10.70L146.37-10.70Q146.37-9.26 146.91-7.99L146.91-7.99L146.91-7.99Q147.46-6.72 148.40-5.78L148.40-5.78L148.40-5.78Q149.34-4.84 150.61-4.30L150.61-4.30L150.61-4.30Q151.88-3.75 153.32-3.75L153.32-3.75L156.52-3.75L156.52-3.75Q157.97-3.75 159.24-4.30L159.24-4.30L159.24-4.30Q160.51-4.84 161.45-5.78L161.45-5.78L161.45-5.78Q162.38-6.72 162.93-7.99L162.93-7.99L162.93-7.99Q163.48-9.26 163.48-10.70L163.48-10.70" fill="#23d5ce" stroke="none" stroke-width="none" transform="translate(-445.6600036621094,20.68855487891606)" style="fill: rgb(16, 128, 139);"></path></g><g class="path" style="transform: scale(0.91); transform-origin: -254.41px 0.298557px; animation: 1s linear -0.518571s infinite normal forwards running breath-1e1b11ca-607b-4ffd-86a3-7b9f0759d450;"><path d="M204.61 0L199.80 0L199.80-29.30L199.80-29.30Q199.80-30.74 199.26-32.01L199.26-32.01L199.26-32.01Q198.71-33.28 197.77-34.22L197.77-34.22L197.77-34.22Q196.84-35.16 195.57-35.70L195.57-35.70L195.57-35.70Q194.30-36.25 192.85-36.25L192.85-36.25L189.65-36.25L189.65-36.25Q188.20-36.25 186.93-35.70L186.93-35.70L186.93-35.70Q185.66-35.16 184.73-34.22L184.73-34.22L184.73-34.22Q183.79-33.28 183.24-32.01L183.24-32.01L183.24-32.01Q182.70-30.74 182.70-29.30L182.70-29.30L182.70 0L177.89 0L177.89-40L179.49-40L182.11-35.94L182.11-35.94Q183.75-38.16 186.23-39.47L186.23-39.47L186.23-39.47Q188.71-40.78 191.64-40.78L191.64-40.78L192.85-40.78L192.85-40.78Q195.27-40.78 197.42-39.86L197.42-39.86L197.42-39.86Q199.57-38.95 201.17-37.34L201.17-37.34L201.17-37.34Q202.77-35.74 203.69-33.59L203.69-33.59L203.69-33.59Q204.61-31.45 204.61-29.02L204.61-29.02L204.61 0" fill="#23d5ce" stroke="none" stroke-width="none" transform="translate(-445.6600036621094,20.68855487891606)" style="fill: rgb(35, 213, 206);"></path></g><g class="path" style="transform: scale(0.91); transform-origin: -195.68px -7.32144px; animation: 1s linear -0.495s infinite normal forwards running breath-1e1b11ca-607b-4ffd-86a3-7b9f0759d450;"><path d="M265.74-35.27L265.74-35.27L265.74-35.27Q265.74-32.42 264.67-29.92L264.67-29.92L264.67-29.92Q263.59-27.42 261.72-25.55L261.72-25.55L261.72-25.55Q259.84-23.67 257.32-22.60L257.32-22.60L257.32-22.60Q254.80-21.52 251.95-21.52L251.95-21.52L239.26-21.52L239.26 0L234.22 0L234.22-56.02L251.95-56.02L251.95-56.02Q254.80-56.02 257.32-54.94L257.32-54.94L257.32-54.94Q259.84-53.87 261.72-51.99L261.72-51.99L261.72-51.99Q263.59-50.12 264.67-47.60L264.67-47.60L264.67-47.60Q265.74-45.08 265.74-42.23L265.74-42.23L265.74-35.27zM260.70-35.27L260.70-42.23L260.70-42.23Q260.70-44.10 260-45.72L260-45.72L260-45.72Q259.30-47.34 258.07-48.57L258.07-48.57L258.07-48.57Q256.84-49.80 255.21-50.51L255.21-50.51L255.21-50.51Q253.59-51.21 251.72-51.21L251.72-51.21L239.26-51.21L239.26-26.33L251.72-26.33L251.72-26.33Q253.59-26.33 255.21-27.03L255.21-27.03L255.21-27.03Q256.84-27.73 258.07-28.95L258.07-28.95L258.07-28.95Q259.30-30.16 260-31.78L260-31.78L260-31.78Q260.70-33.40 260.70-35.27L260.70-35.27" fill="#23d5ce" stroke="none" stroke-width="none" transform="translate(-445.6600036621094,20.68855487891606)" style="fill: rgb(36, 255, 255);"></path></g><g class="path" style="transform: scale(0.91); transform-origin: -163.63px 0.298557px; animation: 1s linear -0.471429s infinite normal forwards running breath-1e1b11ca-607b-4ffd-86a3-7b9f0759d450;"><path d="M290.31-35.43L285.51-35.43L285.51-35.43Q284.06-35.43 282.79-34.88L282.79-34.88L282.79-34.88Q281.52-34.34 280.59-33.40L280.59-33.40L280.59-33.40Q279.65-32.46 279.10-31.19L279.10-31.19L279.10-31.19Q278.55-29.92 278.55-28.48L278.55-28.48L278.55 0L273.75 0L273.75-40L275.35-40L277.97-35.94L277.97-35.94Q279.61-38.16 282.09-39.47L282.09-39.47L282.09-39.47Q284.57-40.78 287.50-40.78L287.50-40.78L290.31-40.78L290.31-35.43" fill="#23d5ce" stroke="none" stroke-width="none" transform="translate(-445.6600036621094,20.68855487891606)" style="fill: rgb(76, 212, 204);"></path></g><g class="path" style="transform: scale(0.91); transform-origin: -135.58px 0.688557px; animation: 1s linear -0.447857s infinite normal forwards running breath-1e1b11ca-607b-4ffd-86a3-7b9f0759d450;"><path d="M323.44-10.98L323.44-10.98L323.44-10.98Q323.44-8.55 322.52-6.41L322.52-6.41L322.52-6.41Q321.60-4.26 320-2.66L320-2.66L320-2.66Q318.40-1.05 316.25-0.14L316.25-0.14L316.25-0.14Q314.10 0.78 311.68 0.78L311.68 0.78L308.48 0.78L308.48 0.78Q306.05 0.78 303.91-0.14L303.91-0.14L303.91-0.14Q301.76-1.05 300.16-2.66L300.16-2.66L300.16-2.66Q298.55-4.26 297.64-6.41L297.64-6.41L297.64-6.41Q296.72-8.55 296.72-10.98L296.72-10.98L296.72-29.02L296.72-29.02Q296.72-31.45 297.64-33.59L297.64-33.59L297.64-33.59Q298.55-35.74 300.16-37.34L300.16-37.34L300.16-37.34Q301.76-38.95 303.91-39.86L303.91-39.86L303.91-39.86Q306.05-40.78 308.48-40.78L308.48-40.78L311.68-40.78L311.68-40.78Q314.10-40.78 316.25-39.86L316.25-39.86L316.25-39.86Q318.40-38.95 320-37.34L320-37.34L320-37.34Q321.60-35.74 322.52-33.59L322.52-33.59L322.52-33.59Q323.44-31.45 323.44-29.02L323.44-29.02L323.44-10.98zM318.63-10.70L318.63-29.30L318.63-29.30Q318.63-30.74 318.09-32.01L318.09-32.01L318.09-32.01Q317.54-33.28 316.60-34.22L316.60-34.22L316.60-34.22Q315.66-35.16 314.39-35.70L314.39-35.70L314.39-35.70Q313.13-36.25 311.68-36.25L311.68-36.25L308.48-36.25L308.48-36.25Q307.03-36.25 305.76-35.70L305.76-35.70L305.76-35.70Q304.49-35.16 303.55-34.22L303.55-34.22L303.55-34.22Q302.62-33.28 302.07-32.01L302.07-32.01L302.07-32.01Q301.52-30.74 301.52-29.30L301.52-29.30L301.52-10.70L301.52-10.70Q301.52-9.26 302.07-7.99L302.07-7.99L302.07-7.99Q302.62-6.72 303.55-5.78L303.55-5.78L303.55-5.78Q304.49-4.84 305.76-4.30L305.76-4.30L305.76-4.30Q307.03-3.75 308.48-3.75L308.48-3.75L311.68-3.75L311.68-3.75Q313.13-3.75 314.39-4.30L314.39-4.30L314.39-4.30Q315.66-4.84 316.60-5.78L316.60-5.78L316.60-5.78Q317.54-6.72 318.09-7.99L318.09-7.99L318.09-7.99Q318.63-9.26 318.63-10.70L318.63-10.70" fill="#23d5ce" stroke="none" stroke-width="none" transform="translate(-445.6600036621094,20.68855487891606)" style="fill: rgb(4, 155, 186);"></path></g><g class="path" style="transform: scale(0.91); transform-origin: -108.61px -32.1264px; animation: 1s linear -0.424286s infinite normal forwards running breath-1e1b11ca-607b-4ffd-86a3-7b9f0759d450;"><path d="M339.84-49.61L334.26-49.61L334.26-56.02L339.84-56.02L339.84-49.61" fill="#23d5ce" stroke="none" stroke-width="none" transform="translate(-445.6600036621094,20.68855487891606)" style="fill: rgb(16, 128, 139);"></path></g><g class="path" style="transform: scale(0.91); transform-origin: -112.085px 8.69856px; animation: 1s linear -0.400714s infinite normal forwards running breath-1e1b11ca-607b-4ffd-86a3-7b9f0759d450;"><path d="M339.45 4.26L339.45 4.26L339.45 4.26Q339.45 6.68 338.54 8.81L338.54 8.81L338.54 8.81Q337.62 10.94 336.02 12.54L336.02 12.54L336.02 12.54Q334.41 14.14 332.27 15.08L332.27 15.08L332.27 15.08Q330.12 16.02 327.70 16.02L327.70 16.02L327.70 11.45L327.70 11.45Q329.14 11.45 330.41 10.90L330.41 10.90L330.41 10.90Q331.68 10.35 332.62 9.41L332.62 9.41L332.62 9.41Q333.55 8.48 334.10 7.21L334.10 7.21L334.10 7.21Q334.65 5.94 334.65 4.49L334.65 4.49L334.65-40L339.45-40L339.45 4.26" fill="#23d5ce" stroke="none" stroke-width="none" transform="translate(-445.6600036621094,20.68855487891606)" style="fill: rgb(35, 213, 206);"></path></g><g class="path" style="transform: scale(0.91); transform-origin: -81.64px 0.688557px; animation: 1s linear -0.377143s infinite normal forwards running breath-1e1b11ca-607b-4ffd-86a3-7b9f0759d450;"><path d="M377.38-10.98L377.38-10.98L377.38-10.98Q377.38-8.55 376.46-6.41L376.46-6.41L376.46-6.41Q375.55-4.26 373.95-2.66L373.95-2.66L373.95-2.66Q372.34-1.05 370.20-0.14L370.20-0.14L370.20-0.14Q368.05 0.78 365.63 0.78L365.63 0.78L362.42 0.78L362.42 0.78Q360 0.78 357.85-0.14L357.85-0.14L357.85-0.14Q355.70-1.05 354.10-2.66L354.10-2.66L354.10-2.66Q352.50-4.26 351.58-6.41L351.58-6.41L351.58-6.41Q350.66-8.55 350.66-10.98L350.66-10.98L350.66-29.02L350.66-29.02Q350.66-31.45 351.58-33.59L351.58-33.59L351.58-33.59Q352.50-35.74 354.10-37.34L354.10-37.34L354.10-37.34Q355.70-38.95 357.85-39.86L357.85-39.86L357.85-39.86Q360-40.78 362.42-40.78L362.42-40.78L365.63-40.78L365.63-40.78Q368.05-40.78 370.20-39.86L370.20-39.86L370.20-39.86Q372.34-38.95 373.95-37.34L373.95-37.34L373.95-37.34Q375.55-35.74 376.46-33.59L376.46-33.59L376.46-33.59Q377.38-31.45 377.38-29.02L377.38-29.02L377.38-19.61L355.47-19.61L355.47-10.70L355.47-10.70Q355.47-9.26 356.02-7.99L356.02-7.99L356.02-7.99Q356.56-6.72 357.50-5.78L357.50-5.78L357.50-5.78Q358.44-4.84 359.71-4.30L359.71-4.30L359.71-4.30Q360.98-3.75 362.42-3.75L362.42-3.75L365.63-3.75L365.63-3.75Q367.07-3.75 368.34-4.30L368.34-4.30L368.34-4.30Q369.61-4.84 370.55-5.78L370.55-5.78L370.55-5.78Q371.48-6.72 372.03-7.99L372.03-7.99L372.03-7.99Q372.58-9.26 372.58-10.70L372.58-10.70L372.58-13.36L377.38-12.58L377.38-10.98zM372.58-23.36L372.58-29.30L372.58-29.30Q372.58-30.74 372.03-32.01L372.03-32.01L372.03-32.01Q371.48-33.28 370.55-34.22L370.55-34.22L370.55-34.22Q369.61-35.16 368.34-35.70L368.34-35.70L368.34-35.70Q367.07-36.25 365.63-36.25L365.63-36.25L362.42-36.25L362.42-36.25Q360.98-36.25 359.71-35.70L359.71-35.70L359.71-35.70Q358.44-35.16 357.50-34.22L357.50-34.22L357.50-34.22Q356.56-33.28 356.02-32.01L356.02-32.01L356.02-32.01Q355.47-30.74 355.47-29.30L355.47-29.30L355.47-23.36L372.58-23.36" fill="#23d5ce" stroke="none" stroke-width="none" transform="translate(-445.6600036621094,20.68855487891606)" style="fill: rgb(36, 255, 255);"></path></g><g class="path" style="transform: scale(0.91); transform-origin: -45.31px 0.688557px; animation: 1s linear -0.353571s infinite normal forwards running breath-1e1b11ca-607b-4ffd-86a3-7b9f0759d450;"><path d="M413.71-10.98L413.71-10.98L413.71-10.98Q413.71-8.55 412.79-6.41L412.79-6.41L412.79-6.41Q411.88-4.26 410.27-2.66L410.27-2.66L410.27-2.66Q408.67-1.05 406.52-0.14L406.52-0.14L406.52-0.14Q404.38 0.78 401.95 0.78L401.95 0.78L398.75 0.78L398.75 0.78Q396.33 0.78 394.18-0.14L394.18-0.14L394.18-0.14Q392.03-1.05 390.43-2.66L390.43-2.66L390.43-2.66Q388.83-4.26 387.91-6.41L387.91-6.41L387.91-6.41Q386.99-8.55 386.99-10.98L386.99-10.98L386.99-29.02L386.99-29.02Q386.99-31.45 387.91-33.59L387.91-33.59L387.91-33.59Q388.83-35.74 390.43-37.34L390.43-37.34L390.43-37.34Q392.03-38.95 394.18-39.86L394.18-39.86L394.18-39.86Q396.33-40.78 398.75-40.78L398.75-40.78L401.95-40.78L401.95-40.78Q404.38-40.78 406.52-39.86L406.52-39.86L406.52-39.86Q408.67-38.95 410.27-37.34L410.27-37.34L410.27-37.34Q411.88-35.74 412.79-33.59L412.79-33.59L412.79-33.59Q413.71-31.45 413.71-29.02L413.71-29.02L413.71-27.42L408.91-26.64L408.91-29.30L408.91-29.30Q408.91-30.74 408.36-32.01L408.36-32.01L408.36-32.01Q407.81-33.28 406.88-34.22L406.88-34.22L406.88-34.22Q405.94-35.16 404.67-35.70L404.67-35.70L404.67-35.70Q403.40-36.25 401.95-36.25L401.95-36.25L398.75-36.25L398.75-36.25Q397.30-36.25 396.04-35.70L396.04-35.70L396.04-35.70Q394.77-35.16 393.83-34.22L393.83-34.22L393.83-34.22Q392.89-33.28 392.34-32.01L392.34-32.01L392.34-32.01Q391.80-30.74 391.80-29.30L391.80-29.30L391.80-10.70L391.80-10.70Q391.80-9.26 392.34-7.99L392.34-7.99L392.34-7.99Q392.89-6.72 393.83-5.78L393.83-5.78L393.83-5.78Q394.77-4.84 396.04-4.30L396.04-4.30L396.04-4.30Q397.30-3.75 398.75-3.75L398.75-3.75L401.95-3.75L401.95-3.75Q403.40-3.75 404.67-4.30L404.67-4.30L404.67-4.30Q405.94-4.84 406.88-5.78L406.88-5.78L406.88-5.78Q407.81-6.72 408.36-7.99L408.36-7.99L408.36-7.99Q408.91-9.26 408.91-10.70L408.91-10.70L408.91-13.36L413.71-12.58L413.71-10.98" fill="#23d5ce" stroke="none" stroke-width="none" transform="translate(-445.6600036621094,20.68855487891606)" style="fill: rgb(76, 212, 204);"></path></g><g class="path" style="transform: scale(0.91); transform-origin: -14.465px -4.50644px; animation: 1s linear -0.33s infinite normal forwards running breath-1e1b11ca-607b-4ffd-86a3-7b9f0759d450;"><path d="M442.27 0L437.89 0L437.89 0Q435.70 0 433.77-0.82L433.77-0.82L433.77-0.82Q431.84-1.64 430.41-3.09L430.41-3.09L430.41-3.09Q428.98-4.53 428.14-6.45L428.14-6.45L428.14-6.45Q427.30-8.36 427.30-10.55L427.30-10.55L427.30-35.43L420.12-35.43L420.12-40L427.30-40L427.30-49.61L432.11-50.39L432.11-40L442.27-40L442.27-35.43L432.11-35.43L432.11-10.31L432.11-10.31Q432.11-9.10 432.56-8.07L432.56-8.07L432.56-8.07Q433.01-7.03 433.79-6.25L433.79-6.25L433.79-6.25Q434.57-5.47 435.63-5.02L435.63-5.02L435.63-5.02Q436.68-4.57 437.89-4.57L437.89-4.57L442.27-4.57L442.27 0" fill="#23d5ce" stroke="none" stroke-width="none" transform="translate(-445.6600036621094,20.68855487891606)" style="fill: rgb(4, 155, 186);"></path></g><g class="path" style="transform: scale(0.91); transform-origin: 19.18px 0.688557px; animation: 1s linear -0.306429s infinite normal forwards running breath-1e1b11ca-607b-4ffd-86a3-7b9f0759d450;"><path d="M478.59-10.16L478.59-10.16L478.59-10.16Q478.59-7.73 477.62-5.72L477.62-5.72L477.62-5.72Q476.64-3.71 474.96-2.27L474.96-2.27L474.96-2.27Q473.28-0.82 471.07-0.02L471.07-0.02L471.07-0.02Q468.87 0.78 466.45 0.78L466.45 0.78L463.24 0.78L463.24 0.78Q460.82 0.78 458.61-0.14L458.61-0.14L458.61-0.14Q456.41-1.05 454.75-2.66L454.75-2.66L454.75-2.66Q453.09-4.26 452.09-6.41L452.09-6.41L452.09-6.41Q451.09-8.55 451.09-10.98L451.09-10.98L451.09-12.58L455.90-13.36L455.90-10.70L455.90-10.70Q455.90-9.26 456.50-7.99L456.50-7.99L456.50-7.99Q457.11-6.72 458.13-5.78L458.13-5.78L458.13-5.78Q459.14-4.84 460.47-4.30L460.47-4.30L460.47-4.30Q461.80-3.75 463.24-3.75L463.24-3.75L466.45-3.75L466.45-3.75Q467.89-3.75 469.22-4.18L469.22-4.18L469.22-4.18Q470.55-4.61 471.58-5.41L471.58-5.41L471.58-5.41Q472.62-6.21 473.22-7.34L473.22-7.34L473.22-7.34Q473.83-8.48 473.83-9.92L473.83-9.92L473.83-9.92Q473.83-12.07 472.89-13.44L472.89-13.44L472.89-13.44Q471.95-14.80 470.41-15.72L470.41-15.72L470.41-15.72Q468.87-16.64 466.89-17.25L466.89-17.25L466.89-17.25Q464.92-17.85 462.85-18.46L462.85-18.46L462.85-18.46Q460.78-19.06 458.81-19.84L458.81-19.84L458.81-19.84Q456.84-20.63 455.29-21.89L455.29-21.89L455.29-21.89Q453.75-23.16 452.81-25.08L452.81-25.08L452.81-25.08Q451.88-26.99 451.88-29.84L451.88-29.84L451.88-29.84Q451.88-32.27 452.81-34.28L452.81-34.28L452.81-34.28Q453.75-36.29 455.35-37.73L455.35-37.73L455.35-37.73Q456.95-39.18 459.08-39.98L459.08-39.98L459.08-39.98Q461.21-40.78 463.63-40.78L463.63-40.78L466.45-40.78L466.45-40.78Q468.87-40.78 471.02-39.86L471.02-39.86L471.02-39.86Q473.16-38.95 474.77-37.34L474.77-37.34L474.77-37.34Q476.37-35.74 477.29-33.59L477.29-33.59L477.29-33.59Q478.20-31.45 478.20-29.02L478.20-29.02L478.20-28.87L473.40-28.09L473.40-29.30L473.40-29.30Q473.40-30.74 472.85-32.01L472.85-32.01L472.85-32.01Q472.30-33.28 471.37-34.22L471.37-34.22L471.37-34.22Q470.43-35.16 469.16-35.70L469.16-35.70L469.16-35.70Q467.89-36.25 466.45-36.25L466.45-36.25L463.63-36.25L463.63-36.25Q462.19-36.25 460.92-35.82L460.92-35.82L460.92-35.82Q459.65-35.39 458.71-34.59L458.71-34.59L458.71-34.59Q457.77-33.79 457.23-32.66L457.23-32.66L457.23-32.66Q456.68-31.52 456.68-30.08L456.68-30.08L456.68-30.08Q456.68-28.01 457.62-26.70L457.62-26.70L457.62-26.70Q458.55-25.39 460.10-24.49L460.10-24.49L460.10-24.49Q461.64-23.59 463.61-22.99L463.61-22.99L463.61-22.99Q465.59-22.38 467.64-21.74L467.64-21.74L467.64-21.74Q469.69-21.09 471.66-20.27L471.66-20.27L471.66-20.27Q473.63-19.45 475.18-18.16L475.18-18.16L475.18-18.16Q476.72-16.88 477.66-14.94L477.66-14.94L477.66-14.94Q478.59-13.01 478.59-10.16" fill="#23d5ce" stroke="none" stroke-width="none" transform="translate(-445.6600036621094,20.68855487891606)" style="fill: rgb(16, 128, 139);"></path></g><g class="path" style="transform: scale(0.91); transform-origin: 67.625px -7.32144px; animation: 1s linear -0.282857s infinite normal forwards running breath-1e1b11ca-607b-4ffd-86a3-7b9f0759d450;"><path d="M524.38-51.45L519.96-51.45L519.96-51.45Q518.75-51.45 517.71-51.00L517.71-51.00L517.71-51.00Q516.68-50.55 515.90-49.77L515.90-49.77L515.90-49.77Q515.12-48.98 514.67-47.93L514.67-47.93L514.67-47.93Q514.22-46.88 514.22-45.66L514.22-45.66L514.22-40L523.55-40L523.55-35.43L514.22-35.43L514.22 0L509.41 0L509.41-35.43L502.19-35.43L502.19-40L509.41-40L509.41-45.43L509.41-45.43Q509.41-47.62 510.23-49.55L510.23-49.55L510.23-49.55Q511.05-51.48 512.50-52.93L512.50-52.93L512.50-52.93Q513.95-54.38 515.86-55.20L515.86-55.20L515.86-55.20Q517.77-56.02 519.96-56.02L519.96-56.02L524.38-56.02L524.38-51.45" fill="#23d5ce" stroke="none" stroke-width="none" transform="translate(-445.6600036621094,20.68855487891606)" style="fill: rgb(35, 213, 206);"></path></g><g class="path" style="transform: scale(0.91); transform-origin: 96.88px 0.688557px; animation: 1s linear -0.259286s infinite normal forwards running breath-1e1b11ca-607b-4ffd-86a3-7b9f0759d450;"><path d="M555.90-10.98L555.90-10.98L555.90-10.98Q555.90-8.55 554.98-6.41L554.98-6.41L554.98-6.41Q554.06-4.26 552.46-2.66L552.46-2.66L552.46-2.66Q550.86-1.05 548.71-0.14L548.71-0.14L548.71-0.14Q546.56 0.78 544.14 0.78L544.14 0.78L540.94 0.78L540.94 0.78Q538.52 0.78 536.37-0.14L536.37-0.14L536.37-0.14Q534.22-1.05 532.62-2.66L532.62-2.66L532.62-2.66Q531.02-4.26 530.10-6.41L530.10-6.41L530.10-6.41Q529.18-8.55 529.18-10.98L529.18-10.98L529.18-29.02L529.18-29.02Q529.18-31.45 530.10-33.59L530.10-33.59L530.10-33.59Q531.02-35.74 532.62-37.34L532.62-37.34L532.62-37.34Q534.22-38.95 536.37-39.86L536.37-39.86L536.37-39.86Q538.52-40.78 540.94-40.78L540.94-40.78L544.14-40.78L544.14-40.78Q546.56-40.78 548.71-39.86L548.71-39.86L548.71-39.86Q550.86-38.95 552.46-37.34L552.46-37.34L552.46-37.34Q554.06-35.74 554.98-33.59L554.98-33.59L554.98-33.59Q555.90-31.45 555.90-29.02L555.90-29.02L555.90-10.98zM551.09-10.70L551.09-29.30L551.09-29.30Q551.09-30.74 550.55-32.01L550.55-32.01L550.55-32.01Q550-33.28 549.06-34.22L549.06-34.22L549.06-34.22Q548.13-35.16 546.86-35.70L546.86-35.70L546.86-35.70Q545.59-36.25 544.14-36.25L544.14-36.25L540.94-36.25L540.94-36.25Q539.49-36.25 538.22-35.70L538.22-35.70L538.22-35.70Q536.95-35.16 536.02-34.22L536.02-34.22L536.02-34.22Q535.08-33.28 534.53-32.01L534.53-32.01L534.53-32.01Q533.98-30.74 533.98-29.30L533.98-29.30L533.98-10.70L533.98-10.70Q533.98-9.26 534.53-7.99L534.53-7.99L534.53-7.99Q535.08-6.72 536.02-5.78L536.02-5.78L536.02-5.78Q536.95-4.84 538.22-4.30L538.22-4.30L538.22-4.30Q539.49-3.75 540.94-3.75L540.94-3.75L544.14-3.75L544.14-3.75Q545.59-3.75 546.86-4.30L546.86-4.30L546.86-4.30Q548.13-4.84 549.06-5.78L549.06-5.78L549.06-5.78Q550-6.72 550.55-7.99L550.55-7.99L550.55-7.99Q551.09-9.26 551.09-10.70L551.09-10.70" fill="#23d5ce" stroke="none" stroke-width="none" transform="translate(-445.6600036621094,20.68855487891606)" style="fill: rgb(36, 255, 255);"></path></g><g class="path" style="transform: scale(0.91); transform-origin: 128.13px 0.298557px; animation: 1s linear -0.235714s infinite normal forwards running breath-1e1b11ca-607b-4ffd-86a3-7b9f0759d450;"><path d="M582.07-35.43L577.27-35.43L577.27-35.43Q575.82-35.43 574.55-34.88L574.55-34.88L574.55-34.88Q573.28-34.34 572.34-33.40L572.34-33.40L572.34-33.40Q571.41-32.46 570.86-31.19L570.86-31.19L570.86-31.19Q570.31-29.92 570.31-28.48L570.31-28.48L570.31 0L565.51 0L565.51-40L567.11-40L569.73-35.94L569.73-35.94Q571.37-38.16 573.85-39.47L573.85-39.47L573.85-39.47Q576.33-40.78 579.26-40.78L579.26-40.78L582.07-40.78L582.07-35.43" fill="#23d5ce" stroke="none" stroke-width="none" transform="translate(-445.6600036621094,20.68855487891606)" style="fill: rgb(76, 212, 204);"></path></g><g class="path" style="transform: scale(0.91); transform-origin: 178.58px -7.32144px; animation: 1s linear -0.212143s infinite normal forwards running breath-1e1b11ca-607b-4ffd-86a3-7b9f0759d450;"><path d="M640-13.75L640-13.75L640-13.75Q640-10.90 638.93-8.40L638.93-8.40L638.93-8.40Q637.85-5.90 635.98-4.02L635.98-4.02L635.98-4.02Q634.10-2.15 631.58-1.07L631.58-1.07L631.58-1.07Q629.06 0 626.21 0L626.21 0L608.48 0L608.48-56.02L626.21-56.02L626.21-56.02Q629.06-56.02 631.58-54.94L631.58-54.94L631.58-54.94Q634.10-53.87 635.98-51.99L635.98-51.99L635.98-51.99Q637.85-50.12 638.93-47.60L638.93-47.60L638.93-47.60Q640-45.08 640-42.23L640-42.23L640-41.68L640-41.68Q640-39.69 639.47-37.87L639.47-37.87L639.47-37.87Q638.95-36.05 637.97-34.49L637.97-34.49L637.97-34.49Q636.99-32.93 635.66-31.66L635.66-31.66L635.66-31.66Q634.34-30.39 632.70-29.53L632.70-29.53L632.70-29.53Q634.34-28.67 635.66-27.40L635.66-27.40L635.66-27.40Q636.99-26.13 637.97-24.55L637.97-24.55L637.97-24.55Q638.95-22.97 639.47-21.15L639.47-21.15L639.47-21.15Q640-19.34 640-17.34L640-17.34L640-13.75zM634.96-13.75L634.96-18.16L634.96-18.16Q634.96-20.04 634.26-21.66L634.26-21.66L634.26-21.66Q633.55-23.28 632.32-24.49L632.32-24.49L632.32-24.49Q631.09-25.70 629.47-26.41L629.47-26.41L629.47-26.41Q627.85-27.11 625.98-27.11L625.98-27.11L613.52-27.11L613.52-4.80L625.98-4.80L625.98-4.80Q627.85-4.80 629.47-5.51L629.47-5.51L629.47-5.51Q631.09-6.21 632.32-7.42L632.32-7.42L632.32-7.42Q633.55-8.63 634.26-10.25L634.26-10.25L634.26-10.25Q634.96-11.88 634.96-13.75L634.96-13.75zM634.96-40.90L634.96-42.23L634.96-42.23Q634.96-44.10 634.26-45.72L634.26-45.72L634.26-45.72Q633.55-47.34 632.32-48.57L632.32-48.57L632.32-48.57Q631.09-49.80 629.47-50.51L629.47-50.51L629.47-50.51Q627.85-51.21 625.98-51.21L625.98-51.21L613.52-51.21L613.52-31.91L625.98-31.91L625.98-31.91Q627.85-31.91 629.47-32.62L629.47-32.62L629.47-32.62Q631.09-33.32 632.32-34.55L632.32-34.55L632.32-34.55Q633.55-35.78 634.26-37.40L634.26-37.40L634.26-37.40Q634.96-39.02 634.96-40.90L634.96-40.90" fill="#23d5ce" stroke="none" stroke-width="none" transform="translate(-445.6600036621094,20.68855487891606)" style="fill: rgb(4, 155, 186);"></path></g><g class="path" style="transform: scale(0.91); transform-origin: 215.71px 0.688557px; animation: 1s linear -0.188571s infinite normal forwards running breath-1e1b11ca-607b-4ffd-86a3-7b9f0759d450;"><path d="M674.73-10.98L674.73-10.98L674.73-10.98Q674.73-8.55 673.81-6.41L673.81-6.41L673.81-6.41Q672.89-4.26 671.29-2.66L671.29-2.66L671.29-2.66Q669.69-1.05 667.54-0.14L667.54-0.14L667.54-0.14Q665.39 0.78 662.97 0.78L662.97 0.78L659.77 0.78L659.77 0.78Q657.34 0.78 655.20-0.14L655.20-0.14L655.20-0.14Q653.05-1.05 651.45-2.66L651.45-2.66L651.45-2.66Q649.84-4.26 648.93-6.41L648.93-6.41L648.93-6.41Q648.01-8.55 648.01-10.98L648.01-10.98L648.01-29.02L648.01-29.02Q648.01-31.45 648.93-33.59L648.93-33.59L648.93-33.59Q649.84-35.74 651.45-37.34L651.45-37.34L651.45-37.34Q653.05-38.95 655.20-39.86L655.20-39.86L655.20-39.86Q657.34-40.78 659.77-40.78L659.77-40.78L662.97-40.78L662.97-40.78Q665.39-40.78 667.54-39.86L667.54-39.86L667.54-39.86Q669.69-38.95 671.29-37.34L671.29-37.34L671.29-37.34Q672.89-35.74 673.81-33.59L673.81-33.59L673.81-33.59Q674.73-31.45 674.73-29.02L674.73-29.02L674.73-19.61L652.81-19.61L652.81-10.70L652.81-10.70Q652.81-9.26 653.36-7.99L653.36-7.99L653.36-7.99Q653.91-6.72 654.84-5.78L654.84-5.78L654.84-5.78Q655.78-4.84 657.05-4.30L657.05-4.30L657.05-4.30Q658.32-3.75 659.77-3.75L659.77-3.75L662.97-3.75L662.97-3.75Q664.41-3.75 665.68-4.30L665.68-4.30L665.68-4.30Q666.95-4.84 667.89-5.78L667.89-5.78L667.89-5.78Q668.83-6.72 669.38-7.99L669.38-7.99L669.38-7.99Q669.92-9.26 669.92-10.70L669.92-10.70L669.92-13.36L674.73-12.58L674.73-10.98zM669.92-23.36L669.92-29.30L669.92-29.30Q669.92-30.74 669.38-32.01L669.38-32.01L669.38-32.01Q668.83-33.28 667.89-34.22L667.89-34.22L667.89-34.22Q666.95-35.16 665.68-35.70L665.68-35.70L665.68-35.70Q664.41-36.25 662.97-36.25L662.97-36.25L659.77-36.25L659.77-36.25Q658.32-36.25 657.05-35.70L657.05-35.70L657.05-35.70Q655.78-35.16 654.84-34.22L654.84-34.22L654.84-34.22Q653.91-33.28 653.36-32.01L653.36-32.01L653.36-32.01Q652.81-30.74 652.81-29.30L652.81-29.30L652.81-23.36L669.92-23.36" fill="#23d5ce" stroke="none" stroke-width="none" transform="translate(-445.6600036621094,20.68855487891606)" style="fill: rgb(16, 128, 139);"></path></g><g class="path" style="transform: scale(0.91); transform-origin: 252.43px 8.30856px; animation: 1s linear -0.165s infinite normal forwards running breath-1e1b11ca-607b-4ffd-86a3-7b9f0759d450;"><path d="M711.45 5.04L711.45 5.04L711.45 5.04Q711.45 7.46 710.53 9.49L710.53 9.49L710.53 9.49Q709.61 11.52 708.01 12.97L708.01 12.97L708.01 12.97Q706.41 14.41 704.26 15.21L704.26 15.21L704.26 15.21Q702.11 16.02 699.69 16.02L699.69 16.02L697.70 16.02L697.70 16.02Q695.27 16.02 693.13 15.21L693.13 15.21L693.13 15.21Q690.98 14.41 689.38 12.97L689.38 12.97L689.38 12.97Q687.77 11.52 686.86 9.49L686.86 9.49L686.86 9.49Q685.94 7.46 685.94 5.04L685.94 5.04L685.94 4.88L685.94 4.88Q685.94 2.54 686.80 0.59L686.80 0.59L686.80 0.59Q687.66-1.37 689.14-2.81L689.14-2.81L689.14-2.81Q687.27-3.95 686.15-5.88L686.15-5.88L686.15-5.88Q685.04-7.81 685.04-10.16L685.04-10.16L685.04-10.16Q685.04-12.27 685.94-14.08L685.94-14.08L685.94-14.08Q686.84-15.90 688.40-17.03L688.40-17.03L688.40-17.03Q686.52-18.67 685.43-20.98L685.43-20.98L685.43-20.98Q684.34-23.28 684.34-26.02L684.34-26.02L684.34-29.02L684.34-29.02Q684.34-31.45 685.25-33.59L685.25-33.59L685.25-33.59Q686.17-35.74 687.77-37.34L687.77-37.34L687.77-37.34Q689.38-38.95 691.52-39.86L691.52-39.86L691.52-39.86Q693.67-40.78 696.09-40.78L696.09-40.78L698.09-40.78L698.09-40.78Q701.02-40.78 703.50-39.47L703.50-39.47L703.50-39.47Q705.98-38.16 707.62-35.94L707.62-35.94L710.23-40L711.84-40L711.84-26.02L711.84-26.02Q711.84-23.59 710.92-21.45L710.92-21.45L710.92-21.45Q710-19.30 708.40-17.70L708.40-17.70L708.40-17.70Q706.80-16.09 704.65-15.18L704.65-15.18L704.65-15.18Q702.50-14.26 700.08-14.26L700.08-14.26L693.13-14.26L693.13-14.26Q692.30-14.26 691.56-13.93L691.56-13.93L691.56-13.93Q690.82-13.59 690.25-13.05L690.25-13.05L690.25-13.05Q689.69-12.50 689.38-11.74L689.38-11.74L689.38-11.74Q689.06-10.98 689.06-10.16L689.06-10.16L689.06-10.16Q689.06-9.34 689.38-8.59L689.38-8.59L689.38-8.59Q689.69-7.85 690.25-7.29L690.25-7.29L690.25-7.29Q690.82-6.72 691.56-6.41L691.56-6.41L691.56-6.41Q692.30-6.09 693.13-6.09L693.13-6.09L699.69-6.09L699.69-6.09Q702.11-6.09 704.26-5.29L704.26-5.29L704.26-5.29Q706.41-4.49 708.01-3.05L708.01-3.05L708.01-3.05Q709.61-1.60 710.53 0.43L710.53 0.43L710.53 0.43Q711.45 2.46 711.45 4.88L711.45 4.88L711.45 5.04zM707.07-25.74L707.07-29.30L707.07-29.30Q707.07-30.74 706.52-32.01L706.52-32.01L706.52-32.01Q705.98-33.28 705.02-34.22L705.02-34.22L705.02-34.22Q704.06-35.16 702.79-35.70L702.79-35.70L702.79-35.70Q701.52-36.25 700.08-36.25L700.08-36.25L696.09-36.25L696.09-36.25Q694.65-36.25 693.38-35.70L693.38-35.70L693.38-35.70Q692.11-35.16 691.17-34.22L691.17-34.22L691.17-34.22Q690.23-33.28 689.69-32.01L689.69-32.01L689.69-32.01Q689.14-30.74 689.14-29.30L689.14-29.30L689.14-25.74L689.14-25.74Q689.14-24.30 689.69-23.03L689.69-23.03L689.69-23.03Q690.23-21.76 691.17-20.82L691.17-20.82L691.17-20.82Q692.11-19.88 693.38-19.34L693.38-19.34L693.38-19.34Q694.65-18.79 696.09-18.79L696.09-18.79L700.08-18.79L700.08-18.79Q701.52-18.79 702.79-19.34L702.79-19.34L702.79-19.34Q704.06-19.88 705.02-20.82L705.02-20.82L705.02-20.82Q705.98-21.76 706.52-23.03L706.52-23.03L706.52-23.03Q707.07-24.30 707.07-25.74L707.07-25.74zM706.88 5.27L706.88 4.65L706.88 4.65Q706.88 3.20 706.33 2.05L706.33 2.05L706.33 2.05Q705.78 0.90 704.84 0.12L704.84 0.12L704.84 0.12Q703.91-0.66 702.64-1.09L702.64-1.09L702.64-1.09Q701.37-1.52 699.92-1.52L699.92-1.52L697.46-1.52L697.46-1.52Q696.02-1.52 694.75-1.09L694.75-1.09L694.75-1.09Q693.48-0.66 692.54 0.12L692.54 0.12L692.54 0.12Q691.60 0.90 691.05 2.05L691.05 2.05L691.05 2.05Q690.51 3.20 690.51 4.65L690.51 4.65L690.51 5.27L690.51 5.27Q690.51 6.72 691.05 7.85L691.05 7.85L691.05 7.85Q691.60 8.98 692.54 9.79L692.54 9.79L692.54 9.79Q693.48 10.59 694.75 11.02L694.75 11.02L694.75 11.02Q696.02 11.45 697.46 11.45L697.46 11.45L699.92 11.45L699.92 11.45Q701.37 11.45 702.64 11.02L702.64 11.02L702.64 11.02Q703.91 10.59 704.84 9.79L704.84 9.79L704.84 9.79Q705.78 8.98 706.33 7.85L706.33 7.85L706.33 7.85Q706.88 6.72 706.88 5.27L706.88 5.27" fill="#23d5ce" stroke="none" stroke-width="none" transform="translate(-445.6600036621094,20.68855487891606)" style="fill: rgb(35, 213, 206);"></path></g><g class="path" style="transform: scale(0.91); transform-origin: 279.01px -32.1264px; animation: 1s linear -0.141429s infinite normal forwards running breath-1e1b11ca-607b-4ffd-86a3-7b9f0759d450;"><path d="M727.46-49.61L721.88-49.61L721.88-56.02L727.46-56.02L727.46-49.61" fill="#23d5ce" stroke="none" stroke-width="none" transform="translate(-445.6600036621094,20.68855487891606)" style="fill: rgb(36, 255, 255);"></path></g><g class="path" style="transform: scale(0.91); transform-origin: 279.01px 0.688557px; animation: 1s linear -0.117857s infinite normal forwards running breath-1e1b11ca-607b-4ffd-86a3-7b9f0759d450;"><path d="M727.07 0L722.27 0L722.27-40L727.07-40L727.07 0" fill="#23d5ce" stroke="none" stroke-width="none" transform="translate(-445.6600036621094,20.68855487891606)" style="fill: rgb(76, 212, 204);"></path></g><g class="path" style="transform: scale(0.91); transform-origin: 305.98px 0.298557px; animation: 1s linear -0.0942857s infinite normal forwards running breath-1e1b11ca-607b-4ffd-86a3-7b9f0759d450;"><path d="M765 0L760.20 0L760.20-29.30L760.20-29.30Q760.20-30.74 759.65-32.01L759.65-32.01L759.65-32.01Q759.10-33.28 758.16-34.22L758.16-34.22L758.16-34.22Q757.23-35.16 755.96-35.70L755.96-35.70L755.96-35.70Q754.69-36.25 753.24-36.25L753.24-36.25L750.04-36.25L750.04-36.25Q748.59-36.25 747.32-35.70L747.32-35.70L747.32-35.70Q746.05-35.16 745.12-34.22L745.12-34.22L745.12-34.22Q744.18-33.28 743.63-32.01L743.63-32.01L743.63-32.01Q743.09-30.74 743.09-29.30L743.09-29.30L743.09 0L738.28 0L738.28-40L739.88-40L742.50-35.94L742.50-35.94Q744.14-38.16 746.62-39.47L746.62-39.47L746.62-39.47Q749.10-40.78 752.03-40.78L752.03-40.78L753.24-40.78L753.24-40.78Q755.66-40.78 757.81-39.86L757.81-39.86L757.81-39.86Q759.96-38.95 761.56-37.34L761.56-37.34L761.56-37.34Q763.16-35.74 764.08-33.59L764.08-33.59L764.08-33.59Q765-31.45 765-29.02L765-29.02L765 0" fill="#23d5ce" stroke="none" stroke-width="none" transform="translate(-445.6600036621094,20.68855487891606)" style="fill: rgb(4, 155, 186);"></path></g><g class="path" style="transform: scale(0.91); transform-origin: 342.31px 0.298557px; animation: 1s linear -0.0707143s infinite normal forwards running breath-1e1b11ca-607b-4ffd-86a3-7b9f0759d450;"><path d="M801.33 0L796.52 0L796.52-29.30L796.52-29.30Q796.52-30.74 795.98-32.01L795.98-32.01L795.98-32.01Q795.43-33.28 794.49-34.22L794.49-34.22L794.49-34.22Q793.55-35.16 792.29-35.70L792.29-35.70L792.29-35.70Q791.02-36.25 789.57-36.25L789.57-36.25L786.37-36.25L786.37-36.25Q784.92-36.25 783.65-35.70L783.65-35.70L783.65-35.70Q782.38-35.16 781.45-34.22L781.45-34.22L781.45-34.22Q780.51-33.28 779.96-32.01L779.96-32.01L779.96-32.01Q779.41-30.74 779.41-29.30L779.41-29.30L779.41 0L774.61 0L774.61-40L776.21-40L778.83-35.94L778.83-35.94Q780.47-38.16 782.95-39.47L782.95-39.47L782.95-39.47Q785.43-40.78 788.36-40.78L788.36-40.78L789.57-40.78L789.57-40.78Q791.99-40.78 794.14-39.86L794.14-39.86L794.14-39.86Q796.29-38.95 797.89-37.34L797.89-37.34L797.89-37.34Q799.49-35.74 800.41-33.59L800.41-33.59L800.41-33.59Q801.33-31.45 801.33-29.02L801.33-29.02L801.33 0" fill="#23d5ce" stroke="none" stroke-width="none" transform="translate(-445.6600036621094,20.68855487891606)" style="fill: rgb(16, 128, 139);"></path></g><g class="path" style="transform: scale(0.91); transform-origin: 378.64px 0.688557px; animation: 1s linear -0.0471429s infinite normal forwards running breath-1e1b11ca-607b-4ffd-86a3-7b9f0759d450;"><path d="M837.66-10.98L837.66-10.98L837.66-10.98Q837.66-8.55 836.74-6.41L836.74-6.41L836.74-6.41Q835.82-4.26 834.22-2.66L834.22-2.66L834.22-2.66Q832.62-1.05 830.47-0.14L830.47-0.14L830.47-0.14Q828.32 0.78 825.90 0.78L825.90 0.78L822.70 0.78L822.70 0.78Q820.27 0.78 818.13-0.14L818.13-0.14L818.13-0.14Q815.98-1.05 814.38-2.66L814.38-2.66L814.38-2.66Q812.77-4.26 811.86-6.41L811.86-6.41L811.86-6.41Q810.94-8.55 810.94-10.98L810.94-10.98L810.94-29.02L810.94-29.02Q810.94-31.45 811.86-33.59L811.86-33.59L811.86-33.59Q812.77-35.74 814.38-37.34L814.38-37.34L814.38-37.34Q815.98-38.95 818.13-39.86L818.13-39.86L818.13-39.86Q820.27-40.78 822.70-40.78L822.70-40.78L825.90-40.78L825.90-40.78Q828.32-40.78 830.47-39.86L830.47-39.86L830.47-39.86Q832.62-38.95 834.22-37.34L834.22-37.34L834.22-37.34Q835.82-35.74 836.74-33.59L836.74-33.59L836.74-33.59Q837.66-31.45 837.66-29.02L837.66-29.02L837.66-19.61L815.74-19.61L815.74-10.70L815.74-10.70Q815.74-9.26 816.29-7.99L816.29-7.99L816.29-7.99Q816.84-6.72 817.77-5.78L817.77-5.78L817.77-5.78Q818.71-4.84 819.98-4.30L819.98-4.30L819.98-4.30Q821.25-3.75 822.70-3.75L822.70-3.75L825.90-3.75L825.90-3.75Q827.34-3.75 828.61-4.30L828.61-4.30L828.61-4.30Q829.88-4.84 830.82-5.78L830.82-5.78L830.82-5.78Q831.76-6.72 832.30-7.99L832.30-7.99L832.30-7.99Q832.85-9.26 832.85-10.70L832.85-10.70L832.85-13.36L837.66-12.58L837.66-10.98zM832.85-23.36L832.85-29.30L832.85-29.30Q832.85-30.74 832.30-32.01L832.30-32.01L832.30-32.01Q831.76-33.28 830.82-34.22L830.82-34.22L830.82-34.22Q829.88-35.16 828.61-35.70L828.61-35.70L828.61-35.70Q827.34-36.25 825.90-36.25L825.90-36.25L822.70-36.25L822.70-36.25Q821.25-36.25 819.98-35.70L819.98-35.70L819.98-35.70Q818.71-35.16 817.77-34.22L817.77-34.22L817.77-34.22Q816.84-33.28 816.29-32.01L816.29-32.01L816.29-32.01Q815.74-30.74 815.74-29.30L815.74-29.30L815.74-23.36L832.85-23.36" fill="#23d5ce" stroke="none" stroke-width="none" transform="translate(-445.6600036621094,20.68855487891606)" style="fill: rgb(35, 213, 206);"></path></g><g class="path" style="transform: scale(0.91); transform-origin: 409.89px 0.298557px; animation: 1s linear -0.0235714s infinite normal forwards running breath-1e1b11ca-607b-4ffd-86a3-7b9f0759d450;"><path d="M863.83-35.43L859.02-35.43L859.02-35.43Q857.58-35.43 856.31-34.88L856.31-34.88L856.31-34.88Q855.04-34.34 854.10-33.40L854.10-33.40L854.10-33.40Q853.16-32.46 852.62-31.19L852.62-31.19L852.62-31.19Q852.07-29.92 852.07-28.48L852.07-28.48L852.07 0L847.27 0L847.27-40L848.87-40L851.48-35.94L851.48-35.94Q853.13-38.16 855.61-39.47L855.61-39.47L855.61-39.47Q858.09-40.78 861.02-40.78L861.02-40.78L863.83-40.78L863.83-35.43" fill="#23d5ce" stroke="none" stroke-width="none" transform="translate(-445.6600036621094,20.68855487891606)" style="fill: rgb(36, 255, 255);"></path></g><g class="path" style="transform: scale(0.91); transform-origin: 438.32px 0.688557px; animation: 1s linear 0s infinite normal forwards running breath-1e1b11ca-607b-4ffd-86a3-7b9f0759d450;"><path d="M897.73-10.16L897.73-10.16L897.73-10.16Q897.73-7.73 896.76-5.72L896.76-5.72L896.76-5.72Q895.78-3.71 894.10-2.27L894.10-2.27L894.10-2.27Q892.42-0.82 890.21-0.02L890.21-0.02L890.21-0.02Q888.01 0.78 885.59 0.78L885.59 0.78L882.38 0.78L882.38 0.78Q879.96 0.78 877.75-0.14L877.75-0.14L877.75-0.14Q875.55-1.05 873.89-2.66L873.89-2.66L873.89-2.66Q872.23-4.26 871.23-6.41L871.23-6.41L871.23-6.41Q870.23-8.55 870.23-10.98L870.23-10.98L870.23-12.58L875.04-13.36L875.04-10.70L875.04-10.70Q875.04-9.26 875.64-7.99L875.64-7.99L875.64-7.99Q876.25-6.72 877.27-5.78L877.27-5.78L877.27-5.78Q878.28-4.84 879.61-4.30L879.61-4.30L879.61-4.30Q880.94-3.75 882.38-3.75L882.38-3.75L885.59-3.75L885.59-3.75Q887.03-3.75 888.36-4.18L888.36-4.18L888.36-4.18Q889.69-4.61 890.72-5.41L890.72-5.41L890.72-5.41Q891.76-6.21 892.36-7.34L892.36-7.34L892.36-7.34Q892.97-8.48 892.97-9.92L892.97-9.92L892.97-9.92Q892.97-12.07 892.03-13.44L892.03-13.44L892.03-13.44Q891.09-14.80 889.55-15.72L889.55-15.72L889.55-15.72Q888.01-16.64 886.04-17.25L886.04-17.25L886.04-17.25Q884.06-17.85 881.99-18.46L881.99-18.46L881.99-18.46Q879.92-19.06 877.95-19.84L877.95-19.84L877.95-19.84Q875.98-20.63 874.43-21.89L874.43-21.89L874.43-21.89Q872.89-23.16 871.95-25.08L871.95-25.08L871.95-25.08Q871.02-26.99 871.02-29.84L871.02-29.84L871.02-29.84Q871.02-32.27 871.95-34.28L871.95-34.28L871.95-34.28Q872.89-36.29 874.49-37.73L874.49-37.73L874.49-37.73Q876.09-39.18 878.22-39.98L878.22-39.98L878.22-39.98Q880.35-40.78 882.77-40.78L882.77-40.78L885.59-40.78L885.59-40.78Q888.01-40.78 890.16-39.86L890.16-39.86L890.16-39.86Q892.30-38.95 893.91-37.34L893.91-37.34L893.91-37.34Q895.51-35.74 896.43-33.59L896.43-33.59L896.43-33.59Q897.34-31.45 897.34-29.02L897.34-29.02L897.34-28.87L892.54-28.09L892.54-29.30L892.54-29.30Q892.54-30.74 891.99-32.01L891.99-32.01L891.99-32.01Q891.45-33.28 890.51-34.22L890.51-34.22L890.51-34.22Q889.57-35.16 888.30-35.70L888.30-35.70L888.30-35.70Q887.03-36.25 885.59-36.25L885.59-36.25L882.77-36.25L882.77-36.25Q881.33-36.25 880.06-35.82L880.06-35.82L880.06-35.82Q878.79-35.39 877.85-34.59L877.85-34.59L877.85-34.59Q876.91-33.79 876.37-32.66L876.37-32.66L876.37-32.66Q875.82-31.52 875.82-30.08L875.82-30.08L875.82-30.08Q875.82-28.01 876.76-26.70L876.76-26.70L876.76-26.70Q877.70-25.39 879.24-24.49L879.24-24.49L879.24-24.49Q880.78-23.59 882.75-22.99L882.75-22.99L882.75-22.99Q884.73-22.38 886.78-21.74L886.78-21.74L886.78-21.74Q888.83-21.09 890.80-20.27L890.80-20.27L890.80-20.27Q892.77-19.45 894.32-18.16L894.32-18.16L894.32-18.16Q895.86-16.88 896.80-14.94L896.80-14.94L896.80-14.94Q897.73-13.01 897.73-10.16" fill="#23d5ce" stroke="none" stroke-width="none" transform="translate(-445.6600036621094,20.68855487891606)" style="fill: rgb(76, 212, 204);"></path></g></g>
</g>
</g>
<style id="breath-1e1b11ca-607b-4ffd-86a3-7b9f0759d450" data-anikit="">@keyframes breath-1e1b11ca-607b-4ffd-86a3-7b9f0759d450
{
  0% {
    animation-timing-function: cubic-bezier(0.9647,0.2413,-0.0705,0.7911);
    transform: scale(0.9099999999999999);
  }
  51% {
    animation-timing-function: cubic-bezier(0.9226,0.2631,-0.0308,0.7628);
    transform: scale(1.02994);
  }
  100% {
    transform: scale(0.9099999999999999);
  }
}</style></svg>