<svg xmlns="http://www.w3.org/2000/svg" enable-background="new 0 0 48 48" viewBox="0 0 48 48"><path d="M10 6.5c-4.16 0-6 12.31-6 14v20c0 .55.45 1 1 1h10c.55 0 1-.45 1-1v-20C16 18.81 14.16 6.5 10 6.5zM14 39.5H6v-2h1c.55 0 1-.45 1-1s-.45-1-1-1H6v-2h1c.55 0 1-.45 1-1s-.45-1-1-1H6v-2h1c.55 0 1-.45 1-1s-.45-1-1-1H6v-2h1c.55 0 1-.45 1-1s-.45-1-1-1H6v-3c0-3.72 2.55-12 4-12s4 8.28 4 12V39.5zM24 6.5c-4.16 0-6 12.31-6 14v20c0 .55.45 1 1 1h10c.55 0 1-.45 1-1v-20C30 18.81 28.16 6.5 24 6.5zM28 39.5h-8v-2h1c.55 0 1-.45 1-1s-.45-1-1-1h-1v-2h1c.55 0 1-.45 1-1s-.45-1-1-1h-1v-2h1c.55 0 1-.45 1-1s-.45-1-1-1h-1v-2h1c.55 0 1-.45 1-1s-.45-1-1-1h-1v-3c0-3.72 2.55-12 4-12s4 8.28 4 12V39.5zM38 6.5c-4.16 0-6 12.31-6 14v20c0 .55.45 1 1 1h10c.55 0 1-.45 1-1v-20C44 18.81 42.16 6.5 38 6.5zM42 39.5h-8v-2h1c.55 0 1-.45 1-1s-.45-1-1-1h-1v-2h1c.55 0 1-.45 1-1s-.45-1-1-1h-1v-2h1c.55 0 1-.45 1-1s-.45-1-1-1h-1v-2h1c.55 0 1-.45 1-1s-.45-1-1-1h-1v-3c0-3.72 2.55-12 4-12s4 8.28 4 12V39.5z"/></svg>